<svg width="52" height="53" viewBox="0 0 52 53" fill="none" xmlns="http://www.w3.org/2000/svg">
<g clip-path="url(#clip0_1994_2379)">
<path d="M24.1856 37.9734C23.9668 37.8237 23.7365 37.6855 23.5061 37.5588C23.0708 37.3306 22.616 37.1417 22.1471 36.9945C21.4014 36.7627 20.6246 36.6462 19.8437 36.649H19.2218C20.2756 35.7211 21.0218 34.4942 21.3609 33.1317C21.7001 31.7692 21.6161 30.3357 21.1202 29.0221C20.6243 27.7085 19.74 26.5772 18.5851 25.7787C17.4302 24.9802 16.0594 24.5525 14.6553 24.5525C13.2513 24.5525 11.8805 24.9802 10.7256 25.7787C9.57064 26.5772 8.68636 27.7085 8.19047 29.0221C7.69459 30.3357 7.61062 31.7692 7.94976 33.1317C8.2889 34.4942 9.03505 35.7211 10.0889 36.649H9.52453C7.73278 36.6383 5.99351 37.2534 4.60679 38.388H0.863773C0.634686 38.388 0.414982 38.479 0.252993 38.641C0.0910044 38.803 7.90192e-08 39.0227 7.90192e-08 39.2518V42.7069C7.90192e-08 42.936 0.0910044 43.1557 0.252993 43.3177C0.414982 43.4797 0.634686 43.5707 0.863773 43.5707H1.78513C1.74838 43.861 1.72915 44.1533 1.72755 44.446V51.3561C1.75214 51.5695 1.85433 51.7664 2.01467 51.9093C2.17501 52.0522 2.38229 52.1312 2.59708 52.1312C2.81186 52.1312 3.01915 52.0522 3.17948 51.9093C3.33982 51.7664 3.44201 51.5695 3.46661 51.3561V44.446C3.46661 42.8393 4.10485 41.2984 5.24093 40.1624C6.37701 39.0263 7.91787 38.388 9.52453 38.388H19.8898C21.4965 38.388 23.0373 39.0263 24.1734 40.1624C25.3095 41.2984 25.9477 42.8393 25.9477 44.446V51.3561C25.9723 51.5695 26.0745 51.7664 26.2348 51.9093C26.3952 52.0522 26.6025 52.1312 26.8173 52.1312C27.032 52.1312 27.2393 52.0522 27.3997 51.9093C27.56 51.7664 27.6622 51.5695 27.6868 51.3561V44.446C27.6852 44.1533 27.6659 43.861 27.6292 43.5707H48.4634V51.3676C48.488 51.581 48.5902 51.7779 48.7505 51.9208C48.9109 52.0637 49.1181 52.1427 49.3329 52.1427C49.5477 52.1427 49.755 52.0637 49.9153 51.9208C50.0757 51.7779 50.1779 51.581 50.2025 51.3676V43.5707H51.0662C51.2953 43.5707 51.515 43.4797 51.677 43.3177C51.839 43.1557 51.93 42.936 51.93 42.7069V39.2518C51.93 39.0227 51.839 38.803 51.677 38.641C51.515 38.479 51.2953 38.388 51.0662 38.388H24.773C24.6002 38.2383 24.416 38.1116 24.2317 37.9734H24.1856ZM2.18822 41.8431H1.72755V40.1156H3.052C2.69588 40.6547 2.40588 41.2347 2.18822 41.8431ZM14.7072 36.649C13.5075 36.6379 12.3487 36.2119 11.4276 35.4433C10.5064 34.6747 9.8797 33.611 9.65388 32.4327C9.42807 31.2545 9.61708 30.0344 10.1888 28.9797C10.7605 27.925 11.6797 27.1007 12.7903 26.6469C13.9008 26.1931 15.1342 26.1376 16.2809 26.49C17.4277 26.8424 18.4171 27.5809 19.0811 28.5801C19.7452 29.5792 20.0429 30.7775 19.9236 31.9712C19.8044 33.1649 19.2757 34.2806 18.4271 35.1287C17.9407 35.6186 17.3607 36.0056 16.7216 36.2668C16.0826 36.528 15.3975 36.6579 14.7072 36.649ZM50.2025 41.8431H27.2376C27.0191 41.2372 26.7332 40.6577 26.3854 40.1156H50.2025V41.8431ZM7.92367 46.1735V51.3676C7.92367 51.5967 7.83267 51.8164 7.67068 51.9784C7.50869 52.1404 7.28899 52.2314 7.0599 52.2314C6.83081 52.2314 6.61111 52.1404 6.44912 51.9784C6.28713 51.8164 6.19613 51.5967 6.19613 51.3676V46.1735C6.19613 45.9444 6.28713 45.7247 6.44912 45.5627C6.61111 45.4007 6.83081 45.3097 7.0599 45.3097C7.28899 45.3097 7.50869 45.4007 7.67068 45.5627C7.83267 45.7247 7.92367 45.9444 7.92367 46.1735ZM23.5061 46.1735V51.3676C23.5061 51.5967 23.4151 51.8164 23.2531 51.9784C23.0911 52.1404 22.8714 52.2314 22.6424 52.2314C22.4133 52.2314 22.1936 52.1404 22.0316 51.9784C21.8696 51.8164 21.7786 51.5967 21.7786 51.3676V46.1735C21.7786 45.9444 21.8696 45.7247 22.0316 45.5627C22.1936 45.4007 22.4133 45.3097 22.6424 45.3097C22.8714 45.3097 23.0911 45.4007 23.2531 45.5627C23.4151 45.7247 23.5061 45.9444 23.5061 46.1735ZM2.59132 17.5769H16.953L19.7977 20.4216C20.0907 20.7115 20.4628 20.9086 20.8673 20.9882C21.2718 21.0678 21.6908 21.0263 22.0719 20.8689C22.4529 20.7116 22.7791 20.4454 23.0097 20.1036C23.2402 19.7618 23.3648 19.3596 23.3679 18.9474V17.5769H26.823C27.1643 17.5769 27.5022 17.5095 27.8173 17.3785C28.1325 17.2476 28.4187 17.0557 28.6594 16.8138C28.9002 16.572 29.0908 16.285 29.2204 15.9692C29.3499 15.6535 29.4158 15.3153 29.4143 14.974V2.89274C29.4143 2.20747 29.1429 1.5501 28.6594 1.06446C28.1759 0.578824 27.5198 0.304467 26.8345 0.301421H2.6489C2.30379 0.29375 1.96062 0.35511 1.63955 0.481897C1.31848 0.608684 1.02598 0.798343 0.779224 1.03974C0.532466 1.28113 0.336425 1.56939 0.202613 1.8876C0.0688007 2.20581 -8.51655e-05 2.54754 7.90192e-08 2.89274V15.0086C0.00607375 15.6918 0.281766 16.3451 0.767075 16.8261C1.25238 17.307 1.90803 17.5769 2.59132 17.5769ZM1.72755 2.89274C1.73053 2.66458 1.82249 2.4466 1.98384 2.28526C2.14518 2.12391 2.36316 2.03195 2.59132 2.02897H26.8345C27.0627 2.03195 27.2807 2.12391 27.442 2.28526C27.6034 2.4466 27.6953 2.66458 27.6983 2.89274V15.0086C27.6983 15.2387 27.6077 15.4597 27.446 15.6235C27.2844 15.7873 27.0647 15.8808 26.8345 15.8839H22.5042C22.2751 15.8839 22.0554 15.9749 21.8934 16.1369C21.7314 16.2989 21.6404 16.5186 21.6404 16.7476V18.9819C21.6346 19.05 21.61 19.1152 21.5693 19.1701C21.5286 19.225 21.4735 19.2675 21.41 19.2929C21.3531 19.3287 21.2872 19.3477 21.22 19.3477C21.1528 19.3477 21.0869 19.3287 21.03 19.2929L17.9204 16.1948C17.7586 16.0328 17.539 15.9417 17.31 15.9415H2.59132C2.36118 15.9384 2.14149 15.8449 1.97983 15.6811C1.81816 15.5172 1.72753 15.2963 1.72755 15.0662V2.89274ZM12.9796 6.34783C12.9825 6.12468 13.0717 5.9113 13.2284 5.75243C13.3851 5.59355 13.5973 5.50151 13.8204 5.49557H24.1856C24.3961 5.51999 24.5902 5.62089 24.7311 5.77909C24.872 5.93728 24.9498 6.14174 24.9498 6.35359C24.9498 6.56543 24.872 6.76989 24.7311 6.92808C24.5902 7.08628 24.3961 7.18718 24.1856 7.2116H13.8204C13.5913 7.2116 13.3716 7.1206 13.2096 6.95861C13.0476 6.79662 12.9566 6.57691 12.9566 6.34783H12.9796ZM4.33038 6.34783C4.33038 6.11874 4.42138 5.89904 4.58337 5.73705C4.74536 5.57506 4.96507 5.48406 5.19415 5.48406H10.3653C10.5944 5.48406 10.8141 5.57506 10.976 5.73705C11.138 5.89904 11.229 6.11874 11.229 6.34783C11.229 6.57691 11.138 6.79662 10.976 6.95861C10.8141 7.1206 10.5944 7.2116 10.3653 7.2116H5.19415C4.96507 7.2116 4.74536 7.1206 4.58337 6.95861C4.42138 6.79662 4.33038 6.57691 4.33038 6.34783ZM4.33038 11.542C4.32885 11.4276 4.35007 11.314 4.39279 11.2079C4.43552 11.1018 4.4989 11.0052 4.57926 10.9237C4.65963 10.8423 4.75536 10.7777 4.86092 10.7335C4.96647 10.6894 5.07974 10.6667 5.19415 10.6667H19.0145C19.2436 10.6667 19.4633 10.7577 19.6253 10.9197C19.7873 11.0817 19.8783 11.3014 19.8783 11.5305C19.8783 11.7596 19.7873 11.9793 19.6253 12.1412C19.4633 12.3032 19.2436 12.3942 19.0145 12.3942H5.19415C4.96507 12.3942 4.74536 12.3032 4.58337 12.1412C4.42138 11.9793 4.33038 11.7596 4.33038 11.5305V11.542Z" fill="#303F70"/>
<path d="M29.5641 32.9175C29.335 32.9175 29.1153 33.0085 28.9533 33.1705C28.7913 33.3325 28.7003 33.5522 28.7003 33.7813V38.9754C28.7003 39.2045 28.7913 39.4242 28.9533 39.5862C29.1153 39.7482 29.335 39.8392 29.5641 39.8392C29.7931 39.8392 30.0128 39.7482 30.1748 39.5862C30.3368 39.4242 30.4278 39.2045 30.4278 38.9754V33.7813C30.4248 33.5531 30.3329 33.3351 30.1715 33.1738C30.0102 33.0124 29.7922 32.9205 29.5641 32.9175Z" fill="#303F70"/>
<path d="M45.1465 32.9175C44.9164 32.9175 44.6955 33.0081 44.5316 33.1698C44.3678 33.3314 44.2743 33.5511 44.2712 33.7813V38.9754C44.2958 39.1888 44.398 39.3857 44.5583 39.5286C44.7187 39.6715 44.926 39.7505 45.1408 39.7505C45.3555 39.7505 45.5628 39.6715 45.7232 39.5286C45.8835 39.3857 45.9857 39.1888 46.0103 38.9754V33.7813C46.0073 33.5531 45.9153 33.3351 45.754 33.1738C45.5927 33.0124 45.3747 32.9205 45.1465 32.9175Z" fill="#303F70"/>
<path d="M50.0067 30.2455C49.8741 29.6812 49.681 29.1329 49.4308 28.6101C49.18 28.0857 48.871 27.5911 48.5095 27.1359C47.8311 26.3272 47.0018 25.6583 46.0679 25.1665C45.6326 24.9383 45.1778 24.7494 44.7089 24.6022C43.9625 24.3743 43.1858 24.2617 42.4055 24.2682H41.772C42.8274 23.3411 43.5751 22.1143 43.9155 20.7515C44.2559 19.3886 44.1729 17.9544 43.6775 16.6399C43.1821 15.3254 42.2979 14.1931 41.1427 13.3939C39.9874 12.5947 38.6161 12.1666 37.2113 12.1666C35.8066 12.1666 34.4352 12.5947 33.28 13.3939C32.1247 14.1931 31.2405 15.3254 30.7451 16.6399C30.2497 17.9544 30.1667 19.3886 30.5071 20.7515C30.8476 22.1143 31.5953 23.3411 32.6506 24.2682H32.0172C30.6377 24.2698 29.283 24.6353 28.0899 25.3277C27.5107 25.6667 26.9734 26.0726 26.489 26.537C25.0734 27.9302 24.2485 29.815 24.1856 31.8003V38.9754C24.1856 39.2044 24.2766 39.4241 24.4386 39.5861C24.6006 39.7481 24.8203 39.8391 25.0494 39.8391C25.2785 39.8391 25.4982 39.7481 25.6602 39.5861C25.8222 39.4241 25.9132 39.2044 25.9132 38.9754V32.0652C25.9132 30.4585 26.5514 28.9177 27.6875 27.7816C28.8236 26.6455 30.3644 26.0072 31.9711 26.0072H42.3364C43.943 26.0072 45.4839 26.6455 46.62 27.7816C47.756 28.9177 48.3943 30.4585 48.3943 32.0652V38.9754C48.4189 39.1887 48.5211 39.3856 48.6814 39.5285C48.8418 39.6714 49.049 39.7504 49.2638 39.7504C49.4786 39.7504 49.6859 39.6714 49.8462 39.5285C50.0066 39.3856 50.1088 39.1887 50.1334 38.9754V32.0652C50.1321 31.4839 50.0665 30.9045 49.9376 30.3376L50.0067 30.2455ZM37.2113 24.2682C36.184 24.2682 35.1798 23.9636 34.3256 23.3928C33.4714 22.8221 32.8057 22.0109 32.4125 21.0618C32.0194 20.1126 31.9166 19.0683 32.117 18.0607C32.3174 17.0531 32.8121 16.1276 33.5385 15.4012C34.2649 14.6748 35.1904 14.1801 36.198 13.9797C37.2056 13.7793 38.2499 13.8821 39.199 14.2753C40.1481 14.6684 40.9594 15.3341 41.5301 16.1883C42.1008 17.0425 42.4055 18.0467 42.4055 19.074C42.4068 19.7547 42.2731 20.4288 42.0121 21.0575C41.7512 21.6861 41.3682 22.2568 40.8852 22.7364C39.9111 23.7125 38.5903 24.2632 37.2113 24.2682Z" fill="#303F70"/>
<path d="M36.647 29.4508H37.7756L38.8813 36.0731L37.2113 37.743L35.5414 36.0731L36.647 29.4508Z" fill="#303F70"/>
<path d="M35.8638 25.9843H38.5703L37.9138 27.7118H36.5088L35.8638 25.9843Z" fill="#303F70"/>
</g>
<defs>
<clipPath id="clip0_1994_2379">
<rect width="51.93" height="51.93" fill="white" transform="translate(0 0.301514)"/>
</clipPath>
</defs>
</svg>
