<svg width="59" height="33" viewBox="0 0 59 33" fill="none" xmlns="http://www.w3.org/2000/svg">
<g clip-path="url(#clip0_1994_2388)">
<path d="M12.4959 0.524783C10.6146 0.523322 8.78594 1.14609 7.29655 2.29548C5.80716 3.44487 4.7412 5.05592 4.26572 6.87617C3.79025 8.69642 3.93212 10.623 4.66912 12.3539C5.40612 14.0849 6.69659 15.5224 8.33828 16.4412C5.90784 17.2952 3.80141 18.8807 2.30838 20.98C0.815353 23.0793 0.00896615 25.5894 0 28.1655L0 31.6206C0.0030294 31.8599 0.100223 32.0884 0.270524 32.2565C0.440825 32.4247 0.670518 32.5189 0.90984 32.5189H24.0705C24.1894 32.5204 24.3074 32.4983 24.4178 32.4539C24.5281 32.4094 24.6285 32.3435 24.7131 32.2599C24.7978 32.1763 24.865 32.0768 24.9108 31.967C24.9567 31.8573 24.9803 31.7395 24.9803 31.6206V28.1655C24.98 25.5833 24.1791 23.0648 22.6878 20.9568C21.1965 18.8488 19.0883 17.2551 16.6535 16.3952C18.2722 15.4659 19.54 14.0296 20.2612 12.3081C20.9824 10.5866 21.1169 8.67556 20.6439 6.87002C20.1709 5.06447 19.1167 3.46483 17.6441 2.31803C16.1715 1.17123 14.3623 0.541056 12.4959 0.524783ZM12.4959 2.34446C13.8173 2.35356 15.1065 2.75372 16.2008 3.49449C17.2951 4.23525 18.1456 5.28345 18.645 6.50691C19.1444 7.73037 19.2703 9.0743 19.007 10.3692C18.7436 11.6642 18.1027 12.8522 17.1651 13.7834C16.2275 14.7146 15.0351 15.3473 13.7384 15.6018C12.4417 15.8563 11.0986 15.7211 9.87864 15.2133C8.65864 14.7055 7.6163 13.8479 6.88306 12.7485C6.14982 11.6491 5.75851 10.3573 5.75848 9.03582C5.75693 8.15278 5.93047 7.27819 6.26908 6.46264C6.60769 5.6471 7.10464 4.90678 7.73118 4.28452C8.35773 3.66226 9.10144 3.1704 9.91929 2.83739C10.7371 2.50439 11.6129 2.33685 12.4959 2.34446ZM12.4959 17.5353C13.8952 17.5293 15.2819 17.7998 16.5763 18.3315C17.8707 18.8631 19.0472 19.6453 20.0383 20.6332C21.0294 21.6211 21.8154 22.7951 22.3513 24.0877C22.8871 25.3804 23.1622 26.7662 23.1606 28.1655V30.7453H1.81968V28.1655C1.81967 26.7656 2.09614 25.3796 2.63324 24.0868C3.17033 22.7941 3.95747 21.6202 4.94945 20.6325C5.94144 19.6448 7.11874 18.8628 8.41377 18.3313C9.70881 17.7998 11.0961 17.5293 12.4959 17.5353Z" fill="#303F70"/>
<path d="M37.3265 17.8002H55.8573C56.4957 17.8002 57.1079 17.5466 57.5593 17.0952C58.0107 16.6438 58.2643 16.0315 58.2643 15.3931C58.2643 14.7547 58.0107 14.1425 57.5593 13.6911C57.1079 13.2397 56.4957 12.9861 55.8573 12.9861H37.3265C36.6881 12.9861 36.0759 13.2397 35.6244 13.6911C35.173 14.1425 34.9194 14.7547 34.9194 15.3931C34.9194 16.0315 35.173 16.6438 35.6244 17.0952C36.0759 17.5466 36.6881 17.8002 37.3265 17.8002ZM54.6019 14.3451H55.8573C56.1444 14.3451 56.4198 14.4591 56.6228 14.6622C56.8258 14.8652 56.9399 15.1406 56.9399 15.4277C56.9399 15.7148 56.8258 15.9902 56.6228 16.1932C56.4198 16.3962 56.1444 16.5103 55.8573 16.5103H54.6019V14.3451ZM37.3265 14.3451H53.2775V16.5103H37.3265C37.1843 16.5103 37.0435 16.4823 36.9122 16.4279C36.7809 16.3735 36.6615 16.2937 36.561 16.1932C36.4604 16.0927 36.3807 15.9733 36.3263 15.842C36.2719 15.7106 36.2439 15.5698 36.2439 15.4277C36.2439 15.2855 36.2719 15.1447 36.3263 15.0134C36.3807 14.882 36.4604 14.7627 36.561 14.6622C36.6615 14.5616 36.7809 14.4819 36.9122 14.4275C37.0435 14.3731 37.1843 14.3451 37.3265 14.3451Z" fill="#303F70"/>
<path d="M55.8573 20.2188H37.3265C36.6881 20.2188 36.0759 20.4723 35.6244 20.9238C35.173 21.3752 34.9194 21.9874 34.9194 22.6258C34.9194 23.2642 35.173 23.8764 35.6244 24.3278C36.0759 24.7792 36.6881 25.0328 37.3265 25.0328H55.8573C56.4957 25.0328 57.1079 24.7792 57.5593 24.3278C58.0107 23.8764 58.2643 23.2642 58.2643 22.6258C58.2643 21.9874 58.0107 21.3752 57.5593 20.9238C57.1079 20.4723 56.4957 20.2188 55.8573 20.2188ZM50.3176 23.6738H37.3265C37.0394 23.6738 36.764 23.5598 36.561 23.3568C36.358 23.1537 36.2439 22.8784 36.2439 22.5912C36.2439 22.3041 36.358 22.0288 36.561 21.8257C36.764 21.6227 37.0394 21.5086 37.3265 21.5086H50.3176V23.6738ZM55.8573 23.6738H51.6536V21.5432H55.8573C56.1444 21.5432 56.4198 21.6573 56.6228 21.8603C56.8258 22.0633 56.9399 22.3387 56.9399 22.6258C56.9399 22.9129 56.8258 23.1883 56.6228 23.3913C56.4198 23.5943 56.1444 23.7084 55.8573 23.7084V23.6738Z" fill="#303F70"/>
<path d="M55.8573 27.7855H37.3265C36.6881 27.7855 36.0759 28.0391 35.6244 28.4905C35.173 28.9419 34.9194 29.5542 34.9194 30.1926C34.9194 30.831 35.173 31.4432 35.6244 31.8946C36.0759 32.346 36.6881 32.5996 37.3265 32.5996H55.8573C56.4957 32.5996 57.1079 32.346 57.5593 31.8946C58.0107 31.4432 58.2643 30.831 58.2643 30.1926C58.2643 29.5542 58.0107 28.9419 57.5593 28.4905C57.1079 28.0391 56.4957 27.7855 55.8573 27.7855ZM38.5818 31.2406H37.315C37.0279 31.2406 36.7525 31.1266 36.5495 30.9235C36.3464 30.7205 36.2324 30.4451 36.2324 30.158C36.2324 29.8709 36.3464 29.5955 36.5495 29.3925C36.7525 29.1895 37.0279 29.0754 37.315 29.0754H38.5818V31.2406ZM55.8573 31.2406H39.9293V29.11H55.8573C56.1444 29.11 56.4198 29.224 56.6228 29.4271C56.8258 29.6301 56.9399 29.9054 56.9399 30.1926C56.9399 30.4797 56.8258 30.7551 56.6228 30.9581C56.4198 31.1611 56.1444 31.2752 55.8573 31.2752V31.2406Z" fill="#303F70"/>
<path d="M33.4683 13.1934L31.3262 15.301L31.0958 15.0246C30.9901 14.8835 30.8337 14.789 30.6597 14.761C30.4856 14.7331 30.3075 14.7739 30.1629 14.8748C30.0242 14.9823 29.9315 15.1384 29.9037 15.3117C29.8759 15.4849 29.9151 15.6623 30.0132 15.8077L30.6697 16.706C30.7262 16.7837 30.7985 16.8484 30.8819 16.8961C30.9653 16.9437 31.0578 16.9732 31.1534 16.9824H31.211C31.3856 16.9808 31.5536 16.9153 31.6832 16.7982L34.3666 14.1493C34.4891 14.0246 34.5578 13.857 34.5581 13.6823C34.5584 13.5075 34.4902 13.3397 34.3682 13.2146C34.2461 13.0896 34.08 13.0173 33.9053 13.0134C33.7306 13.0094 33.5613 13.074 33.4338 13.1934H33.4683Z" fill="#303F70"/>
<path d="M33.4683 20.8292L31.3262 22.9253L31.0958 22.6489C30.992 22.5053 30.8353 22.4089 30.6604 22.3808C30.4854 22.3527 30.3065 22.3953 30.1629 22.4992C30.0194 22.603 29.923 22.7596 29.8949 22.9346C29.8668 23.1095 29.9094 23.2885 30.0132 23.432L30.6697 24.3419C30.7268 24.4179 30.7995 24.4809 30.8829 24.5266C30.9663 24.5722 31.0586 24.5996 31.1534 24.6068H31.211C31.3881 24.6067 31.558 24.5363 31.6832 24.411L34.3666 21.7621C34.4406 21.7039 34.5014 21.6308 34.5452 21.5475C34.5889 21.4642 34.6146 21.3726 34.6204 21.2788C34.6263 21.1849 34.6123 21.0908 34.5793 21.0027C34.5463 20.9146 34.4951 20.8345 34.429 20.7675C34.3629 20.7006 34.2834 20.6484 34.1957 20.6143C34.108 20.5802 34.0141 20.5651 33.9201 20.5698C33.8262 20.5746 33.7343 20.5991 33.6505 20.6418C33.5667 20.6845 33.4928 20.7444 33.4338 20.8177L33.4683 20.8292Z" fill="#303F70"/>
<path d="M34.0326 28.4189C33.9724 28.3559 33.9 28.3057 33.8199 28.2714C33.7397 28.2371 33.6534 28.2194 33.5662 28.2194C33.479 28.2194 33.3927 28.2371 33.3125 28.2714C33.2324 28.3057 33.16 28.3559 33.0998 28.4189L32.259 29.2481L31.4298 28.4189C31.3686 28.3555 31.2952 28.3051 31.2141 28.2707C31.133 28.2363 31.0457 28.2185 30.9576 28.2185C30.8695 28.2185 30.7823 28.2363 30.7011 28.2707C30.62 28.3051 30.5466 28.3555 30.4854 28.4189C30.4223 28.4791 30.3722 28.5515 30.3379 28.6317C30.3036 28.7119 30.2859 28.7982 30.2859 28.8854C30.2859 28.9726 30.3036 29.0589 30.3379 29.139C30.3722 29.2192 30.4223 29.2916 30.4854 29.3518L31.3146 30.1925L30.4854 31.0333C30.4223 31.0935 30.3722 31.1659 30.3379 31.246C30.3036 31.3262 30.2859 31.4125 30.2859 31.4997C30.2859 31.5869 30.3036 31.6732 30.3379 31.7534C30.3722 31.8335 30.4223 31.9059 30.4854 31.9661C30.5458 32.0304 30.6191 32.081 30.7005 32.1148C30.7819 32.1486 30.8695 32.1646 30.9576 32.1619C31.0455 32.1632 31.1327 32.1465 31.2139 32.1128C31.2951 32.0792 31.3686 32.0292 31.4298 31.9661L32.259 31.1369L33.0998 31.9661C33.1588 32.0289 33.2302 32.0787 33.3095 32.1124C33.3888 32.1461 33.4743 32.163 33.5604 32.1619C33.6485 32.1646 33.7362 32.1486 33.8176 32.1148C33.899 32.081 33.9723 32.0304 34.0326 31.9661C34.0957 31.9059 34.1459 31.8335 34.1802 31.7534C34.2145 31.6732 34.2322 31.5869 34.2322 31.4997C34.2322 31.4125 34.2145 31.3262 34.1802 31.246C34.1459 31.1659 34.0957 31.0935 34.0326 31.0333L33.2034 30.1925L34.0326 29.3518C34.0957 29.2916 34.1459 29.2192 34.1802 29.139C34.2145 29.0589 34.2322 28.9726 34.2322 28.8854C34.2322 28.7982 34.2145 28.7119 34.1802 28.6317C34.1459 28.5515 34.0957 28.4791 34.0326 28.4189Z" fill="#303F70"/>
</g>
<defs>
<clipPath id="clip0_1994_2388">
<rect width="58.2758" height="32.0748" fill="white" transform="translate(0 0.52478)"/>
</clipPath>
</defs>
</svg>
