<svg width="54" height="38" viewBox="0 0 54 38" fill="none" xmlns="http://www.w3.org/2000/svg">
<g clip-path="url(#clip0_1994_2371)">
<path d="M26.9497 5.29334C25.0684 5.29188 23.2397 5.91464 21.7503 7.06403C20.261 8.21342 19.195 9.82448 18.7195 11.6447C18.244 13.465 18.3859 15.3915 19.1229 17.1225C19.8599 18.8535 21.1504 20.291 22.7921 21.2098C20.3552 22.0678 18.2445 23.6607 16.751 25.7689C15.2576 27.877 14.4549 30.3966 14.4538 32.9801V36.4352C14.4538 36.6765 14.5497 36.9079 14.7203 37.0786C14.8909 37.2492 15.1223 37.3451 15.3636 37.3451H38.5358C38.7741 37.3391 39.0009 37.241 39.1684 37.0713C39.336 36.9016 39.4312 36.6736 39.4341 36.4352V32.9801C39.4313 30.397 38.628 27.8782 37.1348 25.7703C35.6416 23.6625 33.5318 22.0692 31.0958 21.2098C32.7367 20.2915 34.0266 18.8549 34.7638 17.1251C35.501 15.3953 35.6438 13.4699 35.1698 11.6503C34.6958 9.83068 33.6318 8.21961 32.1444 7.06931C30.6569 5.91901 28.83 5.29443 26.9497 5.29334ZM26.9497 7.11302C28.2731 7.11302 29.5668 7.50546 30.6672 8.24072C31.7676 8.97597 32.6253 10.021 33.1317 11.2437C33.6382 12.4664 33.7707 13.8118 33.5125 15.1098C33.2543 16.4078 32.617 17.6001 31.6812 18.5359C30.7454 19.4717 29.5531 20.109 28.2551 20.3672C26.9571 20.6253 25.6117 20.4928 24.389 19.9864C23.1663 19.4799 22.1213 18.6223 21.386 17.5219C20.6508 16.4215 20.2583 15.1278 20.2583 13.8044C20.2568 12.9252 20.4289 12.0544 20.7646 11.2419C21.1003 10.4294 21.5932 9.69114 22.2148 9.06949C22.8365 8.44784 23.5747 7.95501 24.3872 7.61928C25.1998 7.28354 26.0706 7.1115 26.9497 7.11302ZM26.9497 22.3039C28.354 22.2993 29.7453 22.5727 31.0434 23.1084C32.3415 23.644 33.5208 24.4313 34.5132 25.4248C35.5057 26.4183 36.2916 27.5984 36.8259 28.8971C37.3601 30.1958 37.632 31.5874 37.6259 32.9916V35.5599H16.2735V32.9916C16.2674 31.5874 16.5393 30.1958 17.0735 28.8971C17.6078 27.5984 18.3938 26.4183 19.3862 25.4248C20.3786 24.4313 21.5579 23.644 22.856 23.1084C24.1541 22.5727 25.5454 22.2993 26.9497 22.3039Z" fill="#303F70"/>
<path d="M12.4268 17.9965C12.3464 17.988 12.2653 17.988 12.185 17.9965L2.64891 21.4516L4.07701 18.5954C4.13324 18.4988 4.16845 18.3914 4.18036 18.2803C4.19227 18.1691 4.1806 18.0567 4.14611 17.9504C4.11056 17.8411 4.05354 17.7399 3.97839 17.6529C3.90324 17.5659 3.81147 17.4948 3.70847 17.4437C3.58909 17.3759 3.45418 17.3402 3.31689 17.34C3.25242 17.3256 3.18557 17.3256 3.1211 17.34C3.02415 17.3691 2.93423 17.4179 2.85695 17.4833C2.77968 17.5487 2.7167 17.6293 2.67194 17.7201L0.0921401 22.7184C0.0365775 22.8374 0.00778198 22.9672 0.00778198 23.0985C0.00778198 23.2298 0.0365775 23.3596 0.0921401 23.4786C0.179917 23.658 0.332057 23.7978 0.518268 23.8701L5.53967 25.9777C5.63727 26.0225 5.74325 26.046 5.85062 26.0468C6.02753 26.0384 6.19836 25.9797 6.34317 25.8778C6.48797 25.7758 6.60075 25.6347 6.66833 25.471C6.70763 25.3801 6.7279 25.2821 6.7279 25.1831C6.7279 25.084 6.70763 24.9861 6.66833 24.8952C6.57895 24.6643 6.40639 24.4753 6.18462 24.3654L3.17869 23.1446L12.7954 19.6895C13.0273 19.608 13.2176 19.4383 13.3251 19.2173C13.3679 19.1172 13.39 19.0094 13.39 18.9006C13.39 18.7917 13.3679 18.684 13.3251 18.5839C13.2546 18.3968 13.1285 18.2359 12.9638 18.1227C12.7991 18.0094 12.6037 17.9493 12.4038 17.9504" fill="#303F70"/>
<path d="M2.59133 9.04766C2.6777 9.22132 2.82544 9.35675 3.00594 9.42772C3.13212 9.44362 3.25981 9.44362 3.386 9.42772C3.51179 9.42498 3.63629 9.40163 3.75454 9.35862C3.956 9.26579 4.11599 9.10169 4.2037 8.89794C4.23841 8.78725 4.24918 8.67044 4.23528 8.55527C4.22138 8.44011 4.18313 8.32921 4.12308 8.22996L2.71801 5.44285L12.2425 8.82884C12.3455 8.84521 12.4505 8.84521 12.5535 8.82884C12.7276 8.82577 12.8965 8.76873 13.0367 8.66558C13.177 8.56242 13.2818 8.41826 13.3367 8.25299C13.4062 8.0281 13.3892 7.78533 13.2891 7.57228C13.189 7.35924 13.0129 7.19127 12.7954 7.1013L3.17869 3.64621L6.1731 2.49451C6.38574 2.40045 6.55494 2.22947 6.64679 2.01587C6.73864 1.80228 6.74633 1.56185 6.66833 1.34281C6.5881 1.1894 6.46725 1.06099 6.31898 0.971621C6.1707 0.882251 6.00072 0.835358 5.82759 0.836068C5.72335 0.8424 5.62148 0.869827 5.52815 0.916686L0.529788 3.00126C0.422405 3.03682 0.324824 3.097 0.244836 3.17698C0.164849 3.25697 0.104672 3.35455 0.0691099 3.46194C-0.0169128 3.70801 -0.0169128 3.97598 0.0691099 4.22206L2.59133 9.04766Z" fill="#303F70"/>
<path d="M41.3344 8.89806C41.4413 8.91318 41.5499 8.91318 41.6569 8.89806L51.1814 5.44297L49.7648 8.24159C49.7122 8.3424 49.6806 8.45284 49.6719 8.56622C49.6632 8.6796 49.6775 8.79357 49.7142 8.90123C49.7508 9.0089 49.8088 9.10801 49.8848 9.19259C49.9608 9.27717 50.0532 9.34544 50.1564 9.39329C50.257 9.45444 50.3726 9.48635 50.4904 9.48543C50.6184 9.48134 50.744 9.44992 50.8589 9.39329C51.0512 9.32771 51.2116 9.19198 51.3081 9.01323L53.8073 4.18762C53.8613 4.06821 53.8893 3.93864 53.8893 3.80756C53.8893 3.67648 53.8613 3.54691 53.8073 3.4275C53.7661 3.32646 53.7052 3.23466 53.6281 3.15752C53.5509 3.08038 53.4591 3.01946 53.3581 2.97834L48.3713 0.905286C48.2712 0.855662 48.1604 0.831904 48.0488 0.836184C47.8715 0.842874 47.6997 0.899357 47.5531 0.999164C47.4064 1.09897 47.2908 1.23806 47.2196 1.40052C47.1786 1.49301 47.1575 1.59305 47.1575 1.6942C47.1575 1.79535 47.1786 1.89539 47.2196 1.98788C47.3095 2.20618 47.478 2.38287 47.6918 2.48311L50.6747 3.73846L41.0465 7.19355C40.9322 7.23229 40.8272 7.29423 40.738 7.37549C40.6488 7.45675 40.5774 7.55557 40.5282 7.66574C40.4826 7.77118 40.459 7.88485 40.459 7.99974C40.459 8.11463 40.4826 8.2283 40.5282 8.33373C40.5747 8.50083 40.6761 8.6474 40.8161 8.74978C40.9561 8.85217 41.1265 8.9044 41.2998 8.89806" fill="#303F70"/>
<path d="M51.2966 17.8237C51.2097 17.653 51.0617 17.5214 50.882 17.4552C50.7596 17.439 50.6357 17.439 50.5134 17.4552C50.3916 17.4329 50.2667 17.4329 50.1449 17.4552C50.0427 17.5041 49.9515 17.5731 49.8766 17.6582C49.8018 17.7432 49.745 17.8425 49.7095 17.9501C49.674 18.0576 49.6606 18.1712 49.6701 18.2841C49.6796 18.397 49.7118 18.5068 49.7648 18.6069L51.1814 21.44L41.6569 17.985C41.5499 17.9698 41.4414 17.9698 41.3344 17.985C41.1299 17.9934 40.9349 18.0732 40.7832 18.2105C40.6315 18.3478 40.5327 18.5339 40.5039 18.7365C40.4752 18.9391 40.5183 19.1454 40.6259 19.3195C40.7334 19.4936 40.8985 19.6245 41.0925 19.6895L50.7207 23.1446L47.7148 24.2963C47.5078 24.3964 47.3444 24.5687 47.2553 24.7807C47.1663 24.9927 47.1576 25.23 47.2311 25.448C47.3332 25.6523 47.5076 25.8113 47.7204 25.8943C47.9332 25.9773 48.1693 25.9783 48.3828 25.8971L53.3696 23.8701C53.4744 23.8323 53.5693 23.7712 53.6471 23.6914C53.7249 23.6116 53.7836 23.5152 53.8188 23.4094C53.9021 23.1669 53.9021 22.9034 53.8188 22.6608L51.2966 17.8237Z" fill="#303F70"/>
</g>
<defs>
<clipPath id="clip0_1994_2371">
<rect width="53.8879" height="36.5433" fill="white" transform="translate(0 0.836182)"/>
</clipPath>
</defs>
</svg>
