<svg width="55" height="57" viewBox="0 0 55 57" fill="none" xmlns="http://www.w3.org/2000/svg">
<g clip-path="url(#clip0_1994_2398)">
<path d="M36.2093 24.5069C36.072 24.507 35.9363 24.4759 35.8127 24.4161C35.689 24.3562 35.5805 24.2692 35.4953 24.1614C35.3654 23.9584 35.2833 23.7284 35.2554 23.489C35.2275 23.2495 35.2544 23.0069 35.3341 22.7794L35.9444 18.8521H34.0211C33.1323 18.8521 32.2798 18.499 31.6513 17.8705C31.0228 17.242 30.6697 16.3895 30.6697 15.5007V3.67273C30.6727 2.7848 31.0268 1.93412 31.6546 1.30626C32.2825 0.678396 33.1332 0.324325 34.0211 0.321289L51.5384 0.321289C52.4263 0.324325 53.277 0.678396 53.9049 1.30626C54.5327 1.93412 54.8868 2.7848 54.8899 3.67273V15.5352C54.8899 16.4241 54.5368 17.2765 53.9082 17.905C53.2797 18.5335 52.4273 18.8866 51.5384 18.8866H41.7605L37.5223 23.7007C37.3826 23.9322 37.1915 24.1284 36.9638 24.2742C36.7362 24.42 36.478 24.5114 36.2093 24.5415V24.5069ZM34.0211 1.70333C33.4997 1.70635 33.0006 1.91481 32.6319 2.28349C32.2632 2.65217 32.0547 3.15134 32.0517 3.67273V15.5352C32.0547 16.0566 32.2632 16.5558 32.6319 16.9244C33.0006 17.2931 33.4997 17.5016 34.0211 17.5046H36.7506C36.8504 17.5032 36.9493 17.5237 37.0403 17.5648C37.1313 17.6059 37.2121 17.6666 37.2769 17.7424C37.3418 17.8183 37.3892 17.9075 37.4156 18.0038C37.4421 18.1 37.4471 18.2009 37.4301 18.2993L36.8543 22.4223L40.9774 17.7349C41.043 17.6626 41.123 17.6048 41.2122 17.5651C41.3015 17.5255 41.398 17.5049 41.4956 17.5046H51.596C52.1174 17.5016 52.6166 17.2931 52.9852 16.9244C53.3539 16.5558 53.5624 16.0566 53.5654 15.5352V3.67273C53.5639 3.40964 53.5101 3.14947 53.407 2.90742C53.3039 2.66537 53.1536 2.44629 52.9649 2.26295C52.7762 2.07961 52.5529 1.9357 52.308 1.83962C52.063 1.74354 51.8014 1.6972 51.5384 1.70333H34.0211Z" fill="#303F70"/>
<path d="M1.91182 56.1096C1.65979 56.1096 1.41024 56.0598 1.17753 55.963C0.944824 55.8662 0.733554 55.7243 0.555874 55.5456C0.378194 55.3668 0.237611 55.1547 0.142214 54.9214C0.0468158 54.6881 -0.00151411 54.4383 4.17537e-06 54.1863V52.8273C-4.25649e-07 52.5767 0.0495313 52.3287 0.14575 52.0974C0.241968 51.8661 0.382974 51.6561 0.560655 51.4794C0.738336 51.3028 0.949184 51.1631 1.18107 51.0683C1.41296 50.9735 1.6613 50.9254 1.91182 50.9269H4.21521V45.9516C4.21583 45.8484 4.2388 45.7466 4.28254 45.6532C4.32628 45.5597 4.38975 45.4769 4.46859 45.4103L7.72789 42.7269L7.6012 42.5656C5.72812 40.1981 4.70588 37.2693 4.69893 34.2504C4.73341 30.9275 5.98008 27.7316 8.20472 25.2631C10.4294 22.7946 13.4788 21.2234 16.7802 20.8446H16.8608C17.0217 20.6817 17.195 20.5315 17.3791 20.3955L17.5173 20.2803L16.8263 18.7485C16.6495 18.3926 16.5911 17.9894 16.6594 17.5979C16.7278 17.2063 16.9194 16.8469 17.2064 16.5718L17.333 16.4682L16.4808 14.7982H16.3311C16.2429 14.8038 16.1544 14.8038 16.0662 14.7982C15.8247 14.7882 15.5904 14.7134 15.3878 14.5817C15.1852 14.45 15.0217 14.2662 14.9145 14.0496L13.9701 12.1839C13.8089 11.8612 13.7814 11.4881 13.8935 11.1453C14.0056 10.8025 14.2483 10.5177 14.569 10.3527L21.2488 6.97821C21.4301 6.88418 21.632 6.83669 21.8362 6.84001C22.0911 6.84961 22.3382 6.93016 22.5498 7.07259C22.7614 7.21501 22.9291 7.41367 23.0339 7.64619L23.9553 9.53498C24.1192 9.86007 24.1481 10.2367 24.0359 10.583C23.962 10.8018 23.8308 10.9966 23.6559 11.1474L23.5407 11.2625L24.3814 12.921H24.5427H24.8882C25.0762 12.9216 25.2629 12.9527 25.441 13.0131C25.6737 13.0868 25.8894 13.2062 26.0753 13.3644C26.2613 13.5227 26.4137 13.7165 26.5236 13.9345L33.9175 28.5725C34.1382 29.011 34.1761 29.519 34.0228 29.9854C33.8695 30.4517 33.5376 30.8382 33.0998 31.0602L32.6621 31.2905L33.7447 33.4096C33.8141 33.5478 33.855 33.6986 33.8649 33.8529C33.8748 34.0073 33.8535 34.162 33.8023 34.308C33.7562 34.4538 33.6816 34.589 33.5827 34.7056C33.4839 34.8223 33.3627 34.9181 33.2265 34.9875L29.7714 36.715C29.6074 36.799 29.4258 36.8424 29.2416 36.8417C29.1166 36.8403 28.9925 36.8209 28.873 36.7841C28.7262 36.7367 28.5904 36.6603 28.4737 36.5594C28.3569 36.4585 28.2617 36.3352 28.1935 36.1968L27.1225 34.0776L26.6848 34.2965C26.4268 34.4236 26.1433 34.4906 25.8556 34.4922C25.5022 34.4868 25.1576 34.381 24.862 34.1873C24.5663 33.9936 24.3318 33.7199 24.1856 33.3981L21.3525 27.7318H21.1797C20.8067 27.8484 20.4188 27.9105 20.028 27.9161C19.4546 27.919 18.8868 27.8039 18.3598 27.5781C17.8327 27.3522 17.3578 27.0203 16.9645 26.6031L16.8839 26.5225H16.7687C14.9586 26.8604 13.325 27.8245 12.1543 29.2458C10.9835 30.6672 10.3502 32.4551 10.3653 34.2965C10.3653 39.7094 15.237 41.6328 16.8493 42.1165H16.953C17.1014 42.152 17.2338 42.2357 17.3297 42.3545C17.4255 42.4732 17.4793 42.6204 17.4828 42.7729V44.5811H21.698L21.7556 44.4314C21.941 43.9395 22.2741 43.5172 22.7092 43.2223C23.1444 42.9274 23.6601 42.7744 24.1856 42.7845H32.0517C32.3996 42.761 32.7486 42.8093 33.077 42.9263C33.4055 43.0433 33.7064 43.2266 33.9611 43.4647C34.2157 43.7028 34.4188 43.9907 34.5576 44.3105C34.6965 44.6303 34.7681 44.9753 34.7681 45.3239C34.7681 45.6726 34.6965 46.0176 34.5576 46.3374C34.4188 46.6572 34.2157 46.9451 33.9611 47.1832C33.7064 47.4213 33.4055 47.6046 33.077 47.7216C32.7486 47.8386 32.3996 47.8869 32.0517 47.8634H24.1856C23.6602 47.863 23.1481 47.6985 22.7207 47.393C22.2933 47.0874 21.972 46.656 21.8016 46.1589L21.744 46.0207H17.4712V50.9269H32.6276C32.8791 50.9239 33.1286 50.9708 33.3619 51.0649C33.5951 51.1591 33.8073 51.2986 33.9862 51.4753C34.1651 51.6521 34.3071 51.8626 34.4041 52.0947C34.501 52.3267 34.5509 52.5757 34.5509 52.8273V54.1978C34.5509 54.7048 34.3495 55.1911 33.9909 55.5496C33.6324 55.9082 33.1461 56.1096 32.6391 56.1096H1.91182ZM1.91182 52.309C1.77329 52.309 1.64025 52.3632 1.54122 52.4601C1.44219 52.5569 1.38505 52.6888 1.38204 52.8273V54.1863C1.38204 54.3268 1.43786 54.4615 1.53721 54.5609C1.63656 54.6602 1.77131 54.716 1.91182 54.716H32.6276C32.7681 54.716 32.9028 54.6602 33.0022 54.5609C33.1015 54.4615 33.1574 54.3268 33.1574 54.1863V52.8273C33.1543 52.6888 33.0972 52.5569 32.9982 52.4601C32.8991 52.3632 32.7661 52.309 32.6276 52.309H1.91182ZM5.59725 46.2741V50.8809H16.1238V43.5215H8.94869L5.59725 46.2741ZM24.1856 44.178C23.8802 44.178 23.5872 44.2994 23.3713 44.5153C23.1553 44.7313 23.0339 45.0243 23.0339 45.3297C23.0339 45.6352 23.1553 45.9281 23.3713 46.1441C23.5872 46.3601 23.8802 46.4814 24.1856 46.4814H32.0517C32.3572 46.4814 32.6501 46.3601 32.8661 46.1441C33.0821 45.9281 33.2034 45.6352 33.2034 45.3297C33.2034 45.0243 33.0821 44.7313 32.8661 44.5153C32.6501 44.2994 32.3572 44.178 32.0517 44.178H24.1856ZM15.6285 22.434C12.9363 23.0335 10.5271 24.5288 8.79488 26.6752C7.06268 28.8216 6.10995 31.4922 6.09248 34.2504C6.09834 37.1139 7.12306 39.8819 8.98324 42.0589V42.1395H13.4058L12.9105 41.7825C11.665 40.9785 10.6474 39.8676 9.95556 38.5565C9.26371 37.2454 8.92093 35.7784 8.9602 34.2965C8.95917 32.253 9.63747 30.2673 10.8884 28.6515C12.1393 27.0357 13.8919 25.8817 15.8704 25.3708L16.1238 25.3132L16.0547 25.0944C15.8865 24.6447 15.797 24.1694 15.7898 23.6893C15.7943 23.3547 15.8407 23.022 15.928 22.6989L16.0086 22.3649L15.6285 22.434ZM28.3893 33.3751L29.3683 35.2984L32.4087 33.7206L31.4298 31.7858L28.3893 33.3751ZM20.0165 19.4281C21.1467 19.4281 22.2305 19.877 23.0297 20.6761C23.8288 21.4753 24.2778 22.5592 24.2778 23.6893C24.2775 24.3185 24.1367 24.9397 23.8657 25.5076C23.5947 26.0754 23.2004 26.5756 22.7115 26.9717L22.5848 27.0753L25.464 32.7762C25.5037 32.8521 25.5632 32.9157 25.6362 32.9603C25.7093 33.005 25.793 33.0289 25.8786 33.0296C25.9472 33.0414 26.0173 33.0414 26.0859 33.0296L32.4779 29.7933C32.5341 29.7668 32.5838 29.7284 32.6236 29.6806C32.6634 29.6329 32.6923 29.577 32.7082 29.5169C32.7338 29.4629 32.7471 29.4039 32.7471 29.3442C32.7471 29.2844 32.7338 29.2254 32.7082 29.1714L25.3373 14.4758C25.2782 14.3663 25.1793 14.2838 25.0609 14.2454C25.0116 14.2345 24.9605 14.2345 24.9112 14.2454C24.843 14.2293 24.7721 14.2293 24.7039 14.2454L18.312 17.4817C18.2573 17.5086 18.2084 17.5461 18.1683 17.5921C18.1282 17.638 18.0977 17.6915 18.0784 17.7493C18.0591 17.8072 18.0515 17.8683 18.056 17.9291C18.0605 17.9899 18.0771 18.0492 18.1047 18.1036L18.8533 19.5893H19.0145C19.3414 19.4981 19.6775 19.4441 20.0165 19.4281ZM20.0165 20.8101C19.4438 20.8078 18.8833 20.9757 18.4062 21.2925C17.929 21.6092 17.5567 22.0606 17.3365 22.5893C17.1163 23.118 17.0581 23.7001 17.1692 24.262C17.2804 24.8238 17.556 25.3399 17.9609 25.7449C18.3659 26.1499 18.882 26.4254 19.4439 26.5366C20.0057 26.6478 20.5879 26.5896 21.1166 26.3693C21.6452 26.1491 22.0966 25.7768 22.4134 25.2997C22.7301 24.8225 22.898 24.262 22.8957 23.6893C22.8957 22.9257 22.5924 22.1934 22.0524 21.6534C21.5125 21.1134 20.7801 20.8101 20.0165 20.8101ZM17.7131 14.1878L18.5308 15.8002L23.1376 13.4968L22.3084 11.8384L17.7131 14.1878ZM15.1448 11.6541L16.0662 13.4738L22.7115 10.1108L21.7901 8.30266L15.1448 11.6541Z" fill="#303F70"/>
<path d="M20.028 24.4148C19.9428 24.4167 19.858 24.4013 19.7789 24.3697C19.6997 24.338 19.6278 24.2907 19.5673 24.2306C19.4987 24.164 19.4442 24.0843 19.4069 23.9963C19.3697 23.9083 19.3505 23.8136 19.3505 23.7181C19.3505 23.6225 19.3697 23.5278 19.4069 23.4398C19.4442 23.3518 19.4987 23.2721 19.5673 23.2056C19.6319 23.1397 19.7089 23.0874 19.794 23.0518C19.879 23.0162 19.9704 22.998 20.0626 22.9982C20.1532 22.9969 20.2432 23.0146 20.3265 23.0503C20.4099 23.086 20.4847 23.1389 20.5463 23.2056C20.6751 23.3405 20.747 23.5199 20.747 23.7065C20.747 23.8931 20.6751 24.0726 20.5463 24.2075C20.4817 24.2734 20.4047 24.3256 20.3196 24.3612C20.2346 24.3968 20.1432 24.4151 20.051 24.4148" fill="#303F70"/>
<path d="M42.774 16.0535C42.6823 16.0535 42.5915 16.0352 42.5069 15.9998C42.4223 15.9643 42.3456 15.9124 42.2813 15.847C42.217 15.7816 42.1663 15.7041 42.1323 15.6189C42.0982 15.5337 42.0815 15.4426 42.083 15.3509V14.5678H41.8987C41.1806 14.4449 40.4995 14.1615 39.9063 13.7385L39.7566 13.6349L39.1577 14.1416C39.0939 14.2045 39.0184 14.2542 38.9354 14.2878C38.8524 14.3214 38.7635 14.3383 38.674 14.3374C38.4896 14.3397 38.3117 14.2694 38.1787 14.1416C38.1126 14.0773 38.06 14.0003 38.0241 13.9152C37.9882 13.8301 37.9697 13.7387 37.9697 13.6464C37.9697 13.5541 37.9882 13.4627 38.0241 13.3776C38.06 13.2926 38.1126 13.2156 38.1787 13.1512L38.7431 12.5984L38.6394 12.4486C38.2186 11.8543 37.9353 11.1737 37.8102 10.4562V10.2719H37.027C36.8438 10.2719 36.668 10.1991 36.5384 10.0695C36.4088 9.93996 36.336 9.76419 36.336 9.58092C36.336 9.39765 36.4088 9.22189 36.5384 9.0923C36.668 8.96271 36.8438 8.88991 37.027 8.88991H37.8102V8.70563C37.9351 7.99165 38.2184 7.31474 38.6394 6.72472L38.7431 6.57499L38.2248 6.07977C38.1531 6.0118 38.0966 5.92949 38.0589 5.83821C38.0212 5.74692 38.0032 5.64871 38.006 5.54999C38.0051 5.46043 38.022 5.3716 38.0556 5.28858C38.0892 5.20557 38.1389 5.13002 38.2018 5.06627C38.2663 5.00043 38.3434 4.94816 38.4284 4.91256C38.5135 4.87696 38.6048 4.85873 38.697 4.85897C38.7877 4.85757 38.8776 4.87532 38.961 4.91104C39.0443 4.94676 39.1192 4.99965 39.1807 5.06627L39.7451 5.61909L39.8833 5.51543C40.4808 5.10261 41.1604 4.82369 41.8757 4.69773H42.06V3.88003C42.0584 3.78831 42.0752 3.69722 42.1092 3.61205C42.1433 3.52687 42.1939 3.44933 42.2582 3.38394C42.3226 3.31855 42.3993 3.26662 42.4839 3.23117C42.5685 3.19573 42.6593 3.17748 42.751 3.17749C42.8427 3.17748 42.9335 3.19573 43.0181 3.23117C43.1027 3.26662 43.1794 3.31855 43.2437 3.38394C43.308 3.44933 43.3587 3.52687 43.3927 3.61205C43.4268 3.69722 43.4435 3.78831 43.442 3.88003V4.66318H43.6148C44.3306 4.78701 45.0107 5.06611 45.6072 5.48088L45.7454 5.58454L46.3097 5.03172C46.3712 4.9651 46.4461 4.91221 46.5295 4.87649C46.6128 4.84077 46.7028 4.82302 46.7934 4.82442C46.8856 4.82418 46.977 4.84241 47.062 4.87801C47.1471 4.91361 47.2241 4.96588 47.2887 5.03172C47.3516 5.09547 47.4012 5.17102 47.4348 5.25403C47.4684 5.33705 47.4853 5.42588 47.4845 5.51543C47.4867 5.69981 47.4164 5.87768 47.2887 6.01066L46.7359 6.56348L46.828 6.7132C47.2478 7.30517 47.5346 7.98092 47.6687 8.69412V8.87839H48.4749C48.6582 8.87839 48.8339 8.95119 48.9635 9.08078C49.0931 9.21037 49.1659 9.38614 49.1659 9.56941C49.1659 9.75268 49.0931 9.92844 48.9635 10.058C48.8339 10.1876 48.6582 10.2604 48.4749 10.2604H47.6802V10.4332C47.5566 11.1527 47.2775 11.8365 46.8625 12.4371L46.7589 12.5869L47.3117 13.1397C47.3779 13.2041 47.4305 13.2811 47.4664 13.3661C47.5023 13.4512 47.5208 13.5426 47.5208 13.6349C47.5208 13.7272 47.5023 13.8186 47.4664 13.9037C47.4305 13.9887 47.3779 14.0657 47.3117 14.1301C47.248 14.193 47.1724 14.2427 47.0894 14.2763C47.0064 14.3099 46.9175 14.3268 46.828 14.3259C46.6436 14.3282 46.4657 14.2578 46.3328 14.1301L45.7799 13.5658L45.6302 13.6694C45.0328 14.0926 44.348 14.376 43.6263 14.4987H43.4535V15.2818C43.455 15.3735 43.4383 15.4646 43.4043 15.5498C43.3702 15.635 43.3196 15.7125 43.2552 15.7779C43.1909 15.8433 43.1142 15.8952 43.0296 15.9307C42.945 15.9661 42.8542 15.9844 42.7625 15.9844L42.774 16.0535ZM42.7625 5.93004C42.0468 5.92777 41.3465 6.13792 40.7502 6.5339C40.154 6.92988 39.6887 7.49387 39.4132 8.15446C39.1378 8.81506 39.0645 9.54254 39.2027 10.2448C39.341 10.9471 39.6845 11.5925 40.1898 12.0994C40.6951 12.6063 41.3394 12.9519 42.0412 13.0923C42.743 13.2328 43.4707 13.1619 44.1322 12.8885C44.7937 12.6151 45.3592 12.1516 45.757 11.5567C46.1549 10.9617 46.3673 10.2621 46.3673 9.54637C46.3493 8.60326 45.9635 7.70451 45.2922 7.04183C44.6209 6.37915 43.7173 6.00498 42.774 5.99915L42.7625 5.93004Z" fill="#303F70"/>
<path d="M41.726 11.5389C41.5407 11.5345 41.3639 11.4605 41.2307 11.3316C41.1678 11.2678 41.1182 11.1923 41.0846 11.1093C41.051 11.0262 41.0341 10.9374 41.0349 10.8479C41.0332 10.7565 41.0496 10.6656 41.0832 10.5806C41.1168 10.4956 41.167 10.4181 41.2307 10.3526C41.2945 10.2897 41.37 10.24 41.453 10.2064C41.5361 10.1728 41.6249 10.156 41.7144 10.1568C41.8062 10.1553 41.8973 10.172 41.9824 10.2061C42.0676 10.2401 42.1451 10.2908 42.2105 10.3551C42.2759 10.4194 42.3279 10.4961 42.3633 10.5807C42.3987 10.6653 42.417 10.7561 42.417 10.8479C42.4112 11.0293 42.3366 11.2017 42.2082 11.3301C42.0798 11.4585 41.9074 11.5331 41.726 11.5389Z" fill="#303F70"/>
<path d="M44.7089 10.5484C44.5274 10.5426 44.355 10.468 44.2266 10.3396C44.0983 10.2113 44.0236 10.0388 44.0178 9.85738C44.0191 9.67367 44.0889 9.49706 44.2136 9.36215C44.3478 9.23754 44.5259 9.17127 44.7089 9.17788C44.7995 9.17397 44.8901 9.18825 44.9751 9.2199C45.0602 9.25155 45.138 9.29992 45.2041 9.36215C45.333 9.4953 45.407 9.67211 45.4114 9.85738C45.4099 9.9459 45.3907 10.0332 45.3551 10.1143C45.3196 10.1954 45.2682 10.2685 45.2041 10.3296C45.1409 10.398 45.0644 10.4528 44.9792 10.4904C44.894 10.5281 44.802 10.5478 44.7089 10.5484Z" fill="#303F70"/>
<path d="M42.1291 8.72873C42.0386 8.72873 41.9491 8.71036 41.8659 8.67472C41.7828 8.63909 41.7077 8.58693 41.6453 8.52143C41.5829 8.4579 41.5343 8.38212 41.5026 8.29887C41.4708 8.21562 41.4567 8.1267 41.4611 8.03771C41.4619 7.8517 41.5364 7.67361 41.6684 7.54248C41.8003 7.42173 41.9733 7.35583 42.1521 7.35821C42.3349 7.35285 42.5125 7.41896 42.6473 7.54248C42.7782 7.67431 42.8526 7.85196 42.8546 8.03771C42.852 8.21998 42.7775 8.39384 42.6473 8.52143C42.584 8.58893 42.5072 8.64229 42.4219 8.67802C42.3365 8.71374 42.2446 8.73103 42.1521 8.72873" fill="#303F70"/>
</g>
<defs>
<clipPath id="clip0_1994_2398">
<rect width="54.8899" height="55.7882" fill="white" transform="translate(0 0.321289)"/>
</clipPath>
</defs>
</svg>
