<svg width="41" height="52" viewBox="0 0 41 52" fill="none" xmlns="http://www.w3.org/2000/svg">
<g clip-path="url(#clip0_1994_2268)">
<path fill-rule="evenodd" clip-rule="evenodd" d="M32.81 15.5299C33.13 15.6499 33.12 15.8999 33.07 16.1499L33.64 16.4299L32.75 16.8399C32.1188 17.1203 31.5554 17.5335 31.0981 18.0511C30.6409 18.5688 30.3004 19.1789 30.1 19.8399C29.752 21.256 29.8392 22.7441 30.35 24.1099L30.56 24.7299H29.77C28.425 24.4747 27.0336 24.7623 25.9 25.5299C24.7665 26.4849 23.9302 27.7446 23.49 29.1599L23.22 29.8699L22.71 29.3099C22.2559 28.8021 21.6994 28.3962 21.0773 28.1187C20.4551 27.8412 19.7813 27.6985 19.1 27.6999C17.594 27.7566 16.1505 28.3164 15 29.2899L14.31 29.8199L14.29 28.9999C14.2371 28.3047 14.0302 27.6299 13.6843 27.0246C13.3384 26.4192 12.8621 25.8984 12.29 25.4999C11.8124 25.1296 11.2606 24.8665 10.6722 24.7284C10.0838 24.5904 9.47253 24.5806 8.88002 24.6999H8.79002H8.66002C8.32002 24.6999 8.22002 24.4499 7.99002 24.3399L7.38002 24.1999L7.71002 23.6499C8.04218 23.0705 8.25491 22.4304 8.33563 21.7674C8.41636 21.1045 8.36344 20.4321 8.18002 19.7899C7.9829 19.1317 7.64707 18.5234 7.19513 18.0059C6.7432 17.4885 6.18565 17.0738 5.56002 16.7899C5.22002 16.6799 5.23002 16.4199 5.27002 16.1599L4.69002 15.8799L5.59002 15.4699C6.22273 15.19 6.78777 14.7772 7.24676 14.2596C7.70575 13.7419 8.04792 13.1315 8.25002 12.4699C8.60115 11.0541 8.51397 9.56503 8.00002 8.19988L7.74002 7.40988L8.55002 7.58988C9.22128 7.73001 9.91401 7.73224 10.5862 7.59644C11.2583 7.46064 11.8958 7.18963 12.46 6.79988C13.5883 5.84626 14.4209 4.5904 14.86 3.17988L15.13 2.45988L15.64 3.02988C17.78 5.37988 21 4.75988 23.31 2.99988L24 2.48988L24.06 3.34988C24.1076 4.03274 24.3063 4.6965 24.6419 5.29316C24.9774 5.88981 25.4413 6.40446 26 6.79988C27.2308 7.66502 28.7182 8.08798 30.22 7.99988H31.07L30.64 8.72988C30.3105 9.3103 30.0993 9.95028 30.0186 10.6128C29.9379 11.2754 29.9894 11.9473 30.17 12.5899C30.3693 13.2499 30.7082 13.8594 31.1637 14.377C31.6192 14.8946 32.1807 15.3083 32.81 15.5899V15.5299ZM21.45 39.3299L25.45 31.5399L25.53 31.4799C25.8618 31.2126 26.1358 30.8807 26.3352 30.5042C26.5346 30.1277 26.6554 29.7145 26.69 29.2899C26.7613 28.7085 27.0509 28.1759 27.5 27.7999C27.8838 27.5503 28.3322 27.4182 28.79 27.4199H29.05L37.53 41.3099L30.25 39.6199C29.899 39.5406 29.531 39.6005 29.2233 39.787C28.9155 39.9735 28.6921 40.272 28.6 40.6199L26.72 47.7599L21.45 39.3299ZM10.45 40.1899C10.3439 40.1752 10.2362 40.1752 10.13 40.1899L2.80002 41.9399L11.33 27.7199L11.53 29.0099C11.53 29.0699 11.53 29.1099 11.53 29.1499C11.5691 29.8328 11.8176 30.4871 12.2416 31.0239C12.6656 31.5606 13.2447 31.9538 13.9 32.1499C14.5367 32.3554 15.2195 32.3702 15.8645 32.1925C16.5095 32.0148 17.0884 31.6524 17.53 31.1499C17.7249 30.9363 17.9613 30.7646 18.2247 30.6453C18.4881 30.526 18.773 30.4616 19.0621 30.4559C19.3512 30.4503 19.6385 30.5036 19.9063 30.6126C20.1741 30.7216 20.417 30.884 20.62 31.0899C20.8935 31.429 21.2339 31.7082 21.62 31.9099L22.03 32.1299L13.61 48.3499L11.73 41.2199C11.6514 40.9264 11.4787 40.6669 11.2385 40.4808C10.9983 40.2948 10.7038 40.1926 10.4 40.1899H10.45ZM16 49.7499L20 42.1499L24.45 49.1999C24.7452 49.6278 25.1464 49.9717 25.6145 50.1978C26.0826 50.424 26.6014 50.5246 27.12 50.4899C27.653 50.4194 28.1529 50.1914 28.5555 49.8351C28.9582 49.4788 29.2453 49.0104 29.38 48.4899L30.94 42.5599L36.94 43.9599C37.4674 44.0833 38.0194 44.0488 38.5273 43.8608C39.0352 43.6727 39.4765 43.3394 39.7963 42.9023C40.1161 42.4652 40.3003 41.9437 40.3258 41.4027C40.3514 40.8617 40.2172 40.3252 39.94 39.8599L32 26.8599L32.28 26.5999C32.4231 26.4654 32.5537 26.3181 32.67 26.1599C33.1276 25.6195 33.3974 24.9452 33.4389 24.2382C33.4804 23.5313 33.2913 22.8301 32.9 22.2399C32.7647 21.9911 32.6816 21.7174 32.6558 21.4354C32.63 21.1534 32.6621 20.8691 32.75 20.5999C32.8432 20.3292 32.9919 20.0809 33.1864 19.8708C33.381 19.6607 33.6172 19.4935 33.88 19.3799C34.513 19.1198 35.0534 18.6758 35.4313 18.1054C35.8092 17.5349 36.0073 16.8641 36 16.1799C36.0282 15.5096 35.852 14.8466 35.4949 14.2787C35.1377 13.7108 34.6164 13.2648 34 12.9999C33.7261 12.8832 33.4802 12.7097 33.2784 12.4907C33.0767 12.2717 32.9239 12.0124 32.83 11.7299C32.6746 11.1849 32.7355 10.601 33 10.0999C33.3698 9.54818 33.5672 8.89902 33.5672 8.23488C33.5672 7.57074 33.3698 6.92159 33 6.36988C32.6036 5.79019 32.0403 5.34483 31.3847 5.09298C30.7292 4.84113 30.0126 4.7947 29.33 4.95988C29.0466 5.02816 28.7513 5.03031 28.4669 4.96615C28.1825 4.90198 27.9167 4.77324 27.69 4.58988C27.4634 4.42961 27.2739 4.22259 27.1341 3.9828C26.9944 3.74301 26.9077 3.47603 26.88 3.19988C26.834 2.51903 26.583 1.86806 26.1599 1.33259C25.7369 0.797126 25.1617 0.402241 24.51 0.199882C23.8715 -0.00254309 23.188 -0.0158347 22.5421 0.161611C21.8962 0.339057 21.3155 0.699656 20.87 1.19988C20.6745 1.41128 20.4382 1.58085 20.1754 1.69835C19.9125 1.81585 19.6286 1.87884 19.3407 1.88351C19.0528 1.88818 18.767 1.83444 18.5005 1.72554C18.2339 1.61663 17.9923 1.45482 17.79 1.24988C17.3487 0.698545 16.7466 0.298317 16.0674 0.104778C15.3883 -0.0887617 14.6657 -0.0660071 14 0.169882C13.3779 0.361239 12.826 0.731765 12.4134 1.23512C12.0007 1.73848 11.7456 2.35232 11.68 2.99988C11.6491 3.29023 11.5606 3.57151 11.4198 3.82732C11.279 4.08314 11.0887 4.30837 10.86 4.48988C10.3485 4.83052 9.72348 4.95624 9.12002 4.83988C8.4769 4.72694 7.81517 4.79105 7.20568 5.02533C6.5962 5.25961 6.06191 5.65525 5.66002 6.16988C5.21264 6.71528 4.94943 7.38831 4.90811 8.09251C4.86679 8.79671 5.04949 9.49591 5.43002 10.0899C5.57165 10.3362 5.65918 10.6099 5.68676 10.8926C5.71435 11.1754 5.68137 11.4608 5.59002 11.7299C5.50288 12.0098 5.357 12.2679 5.16213 12.4869C4.96726 12.7059 4.72789 12.8808 4.46002 12.9999C3.83104 13.2569 3.29318 13.696 2.91546 14.2608C2.53773 14.8256 2.33735 15.4904 2.34002 16.1699C2.31938 16.8349 2.49902 17.4908 2.85564 18.0524C3.21225 18.6141 3.7294 19.0557 4.34002 19.3199C4.61753 19.4307 4.86667 19.6023 5.06914 19.8221C5.27162 20.0419 5.42226 20.3042 5.51002 20.5899C5.66011 21.1483 5.58844 21.7431 5.31002 22.2499C4.96676 22.8192 4.79375 23.4749 4.81147 24.1395C4.8292 24.8041 5.0369 25.4497 5.41002 25.9999C5.65389 26.3745 5.97091 26.6961 6.34208 26.9453C6.71324 27.1944 7.13091 27.3661 7.57002 27.4499L8.22002 27.5799L0.50002 40.4099C0.168148 40.8528 -0.0112305 41.3914 -0.0112305 41.9449C-0.0112305 42.4984 0.168148 43.0369 0.50002 43.4799C0.81077 43.9289 1.25082 44.2727 1.76169 44.4657C2.27255 44.6586 2.83003 44.6914 3.36002 44.5599L9.36002 43.1699L11 49.1199C11.133 49.6393 11.4133 50.1091 11.8072 50.4728C12.2011 50.8366 12.6917 51.0786 13.22 51.1699C13.3598 51.1797 13.5002 51.1797 13.64 51.1699C14.1213 51.1519 14.5902 51.0122 15.0029 50.7639C15.4156 50.5156 15.7587 50.1667 16 49.7499Z" fill="#DE2627"/>
<path fill-rule="evenodd" clip-rule="evenodd" d="M22.61 12.3698L17.1 17.8798L14.8 15.5898C14.5507 15.3898 14.236 15.2894 13.917 15.3082C13.5979 15.3269 13.2971 15.4635 13.073 15.6913C12.8488 15.9192 12.7173 16.2222 12.7038 16.5416C12.6903 16.8609 12.7959 17.1739 13 17.4198L16.21 20.6398C16.3279 20.7658 16.4704 20.8662 16.6286 20.9349C16.7869 21.0035 16.9575 21.0389 17.13 21.0389C17.3025 21.0389 17.4732 21.0035 17.6314 20.9349C17.7897 20.8662 17.9322 20.7658 18.05 20.6398L24.48 14.2098C24.6008 14.089 24.6967 13.9456 24.7621 13.7877C24.8274 13.6299 24.8611 13.4607 24.8611 13.2898C24.8611 13.119 24.8274 12.9498 24.7621 12.7919C24.6967 12.6341 24.6008 12.4907 24.48 12.3698C24.3592 12.249 24.2158 12.1532 24.0579 12.0878C23.9001 12.0224 23.7309 11.9888 23.56 11.9888C23.3892 11.9888 23.22 12.0224 23.0621 12.0878C22.9043 12.1532 22.7608 12.249 22.64 12.3698" fill="#DE2627"/>
</g>
<defs>
<clipPath id="clip0_1994_2268">
<rect width="40.28" height="51.19" fill="white"/>
</clipPath>
</defs>
</svg>
