<svg width="66" height="48" viewBox="0 0 66 48" fill="none" xmlns="http://www.w3.org/2000/svg">
<g clip-path="url(#clip0_1994_2279)">
<path d="M43.14 39.3302C42.0949 39.3338 41.0899 38.9282 40.34 38.2002L39.94 37.7902L31.94 29.6502C31.8351 29.5461 31.7518 29.4222 31.695 29.2858C31.6382 29.1493 31.6089 29.003 31.6089 28.8552C31.6089 28.7074 31.6382 28.561 31.695 28.4246C31.7518 28.2881 31.8351 28.1643 31.94 28.0602C32.045 27.955 32.1697 27.8715 32.3069 27.8145C32.4442 27.7576 32.5914 27.7282 32.74 27.7282C32.8886 27.7282 33.0358 27.7576 33.1731 27.8145C33.3103 27.8715 33.435 27.955 33.54 28.0602L41.44 36.0602L41.53 36.1502L41.93 36.5402C42.0944 36.7091 42.2923 36.8417 42.5111 36.9295C42.7298 37.0173 42.9644 37.0584 43.2 37.0502C43.4382 37.0397 43.6714 36.978 43.8837 36.8693C44.0959 36.7605 44.2823 36.6074 44.43 36.4202C44.6862 36.0576 44.8066 35.6163 44.77 35.1738C44.7335 34.7313 44.5423 34.3158 44.23 34.0002L37.54 27.2202L37.41 27.1102L35.94 25.6202C35.8351 25.5161 35.7518 25.3922 35.695 25.2558C35.6382 25.1193 35.6089 24.973 35.6089 24.8252C35.6089 24.6774 35.6382 24.531 35.695 24.3946C35.7518 24.2581 35.8351 24.1343 35.94 24.0302C36.045 23.925 36.1697 23.8415 36.3069 23.7845C36.4442 23.7276 36.5914 23.6982 36.74 23.6982C36.8886 23.6982 37.0358 23.7276 37.1731 23.7845C37.3103 23.8415 37.435 23.925 37.54 24.0302L37.64 24.1402L38.9 25.4202L39.03 25.5302L45.81 32.4302C46.5232 33.1391 46.9533 34.0838 47.0195 35.0872C47.0858 36.0906 46.7838 37.0836 46.17 37.8802C45.8227 38.3134 45.3871 38.6676 44.8923 38.9193C44.3974 39.1711 43.8546 39.3145 43.3 39.3402L43.14 39.3302Z" fill="#DE2627"/>
<path d="M32.41 34.3701C32.2598 34.3716 32.1109 34.3433 31.9718 34.2866C31.8327 34.2299 31.7063 34.1461 31.6 34.0401C31.326 33.7565 30.9596 33.5805 30.567 33.5438C30.1745 33.5071 29.7818 33.6122 29.46 33.8401L29.33 33.9201C29.1225 34.1141 28.8491 34.222 28.565 34.222C28.2809 34.222 28.0075 34.1141 27.8 33.9201C27.5927 33.7225 27.468 33.4537 27.4513 33.1678C27.4346 32.8819 27.5271 32.6004 27.71 32.3801C27.9673 32.0616 28.1077 31.6645 28.1077 31.2551C28.1077 30.8456 27.9673 30.4485 27.71 30.1301C27.672 30.0787 27.6284 30.0317 27.58 29.9901V29.9301C27.2543 29.6253 26.8214 29.4616 26.3756 29.4748C25.9298 29.4879 25.5072 29.6767 25.2 30.0001L23.58 31.6401C23.4798 31.7589 23.3561 31.8557 23.2167 31.9245C23.0773 31.9933 22.9253 32.0327 22.77 32.0401C22.615 32.0445 22.4606 32.0176 22.3163 31.9609C22.1719 31.9042 22.0405 31.8189 21.93 31.7101C21.8099 31.5999 21.7153 31.4649 21.6527 31.3144C21.5902 31.1639 21.5613 31.0016 21.5679 30.8388C21.5746 30.676 21.6167 30.5166 21.6913 30.3717C21.766 30.2268 21.8713 30.1 22 30.0001C22.3261 29.6738 22.5093 29.2314 22.5093 28.7701C22.5093 28.3088 22.3261 27.8663 22 27.5401C21.8769 27.4086 21.7313 27.3002 21.57 27.2201C21.467 27.1606 21.3558 27.1168 21.24 27.0901C20.9546 27.0108 20.6529 27.0108 20.3675 27.0901C20.0821 27.1693 19.8236 27.3249 19.62 27.5401L17.62 29.5401C17.5152 29.6489 17.3893 29.7351 17.2501 29.7936C17.1108 29.8521 16.961 29.8815 16.81 29.8801C16.6592 29.8798 16.51 29.8496 16.3709 29.7912C16.2319 29.7328 16.1058 29.6475 16 29.5401L8.1 21.5401C7.99508 21.4359 7.91181 21.3121 7.85499 21.1756C7.79816 21.0392 7.76891 20.8929 7.76891 20.7451C7.76891 20.5973 7.79816 20.4509 7.85499 20.3145C7.91181 20.178 7.99508 20.0542 8.1 19.9501L20 7.90006C20.105 7.79483 20.2297 7.71135 20.3669 7.65439C20.5042 7.59743 20.6514 7.56812 20.8 7.56812C20.9486 7.56812 21.0958 7.59743 21.2331 7.65439C21.3703 7.71135 21.495 7.79483 21.6 7.90006L25.19 11.5401H32.72C32.9365 11.5475 33.1462 11.6176 33.3237 11.7419C33.5012 11.8661 33.6389 12.0392 33.72 12.2401C33.8073 12.4464 33.8302 12.6743 33.7855 12.8938C33.7409 13.1133 33.6309 13.3142 33.47 13.4701L29.47 17.5401L29.36 17.6301L24.06 23.1001C24.7375 23.5255 25.52 23.7541 26.32 23.7601C26.9151 23.7545 27.5032 23.6315 28.0506 23.3981C28.598 23.1648 29.094 22.8256 29.51 22.4001L34.29 17.5601C34.6037 17.2405 34.978 16.9866 35.3909 16.8133C35.8038 16.64 36.2472 16.5507 36.695 16.5507C37.1428 16.5507 37.5862 16.64 37.9991 16.8133C38.412 16.9866 38.7863 17.2405 39.1 17.5601L41.49 20.0001C41.6053 20.1026 41.6984 20.2276 41.7635 20.3674C41.8287 20.5073 41.8645 20.659 41.8688 20.8132C41.8731 20.9674 41.8457 21.1209 41.7884 21.2641C41.7312 21.4074 41.6452 21.5374 41.5357 21.6461C41.4263 21.7549 41.2958 21.84 41.1522 21.8964C41.0086 21.9528 40.8549 21.9792 40.7007 21.9739C40.5466 21.9687 40.3951 21.9319 40.2556 21.8659C40.1162 21.7999 39.9918 21.706 39.89 21.5901L37.49 19.1501C37.3859 19.0451 37.262 18.9619 37.1256 18.905C36.9891 18.8482 36.8428 18.819 36.695 18.819C36.5472 18.819 36.4008 18.8482 36.2644 18.905C36.128 18.9619 36.0041 19.0451 35.9 19.1501L31.12 24.0001C30.4988 24.6296 29.7595 25.1303 28.9444 25.4735C28.1292 25.8167 27.2544 25.9957 26.37 26.0001C25.4816 26.0028 24.6016 25.8271 23.7823 25.4836C22.9629 25.1401 22.2208 24.6356 21.6 24.0001C21.4951 23.8959 21.4118 23.7721 21.355 23.6357C21.2982 23.4992 21.2689 23.3529 21.2689 23.2051C21.2689 23.0573 21.2982 22.9109 21.355 22.7745C21.4118 22.638 21.4951 22.5142 21.6 22.4101L28 15.9001L28.09 15.8101L30.09 13.7501H24.74C24.5905 13.7535 24.4417 13.727 24.3026 13.672C24.1635 13.6171 24.0368 13.5348 23.93 13.4301L20.82 10.2601L10.43 20.8101L16.78 27.2401L18 26.0001C18.3678 25.6346 18.805 25.3464 19.2859 25.1523C19.7667 24.9582 20.2815 24.8623 20.8 24.8701C21.1205 24.8699 21.4396 24.9103 21.75 24.9901C22.0551 25.0499 22.3488 25.1579 22.62 25.3101C22.9916 25.4961 23.3295 25.7429 23.62 26.0401C24.0815 26.5053 24.4245 27.0746 24.62 27.7001C25.3378 27.3221 26.1536 27.1714 26.9591 27.2678C27.7646 27.3642 28.5217 27.7033 29.13 28.2401C29.2014 28.2982 29.2683 28.3617 29.33 28.4301C29.4404 28.5338 29.5408 28.6476 29.63 28.7701C30.1984 29.4815 30.4992 30.3697 30.48 31.2801C31.0082 31.2791 31.5312 31.3849 32.0175 31.5911C32.5038 31.7973 32.9435 32.0997 33.31 32.4801C33.4149 32.5842 33.4982 32.708 33.555 32.8445C33.6118 32.9809 33.6411 33.1273 33.6411 33.2751C33.6411 33.4229 33.6118 33.5692 33.555 33.7056C33.4982 33.8421 33.4149 33.9659 33.31 34.0701C33.1928 34.1858 33.051 34.2738 32.8953 34.3274C32.7395 34.3811 32.5737 34.3991 32.41 34.3801V34.3701Z" fill="#DE2627"/>
<path d="M36.75 16.5301C37.198 16.5282 37.6419 16.6156 38.0557 16.7873C38.4695 16.9591 38.8449 17.2115 39.16 17.5301L48.73 27.2401L55.07 20.8101L44.67 10.2901L41.55 13.4501C41.3371 13.6609 41.0497 13.7795 40.75 13.7801H33.25L24.07 23.0801C24.7496 23.5008 25.5308 23.7289 26.33 23.7401C26.9251 23.7345 27.5132 23.6115 28.0606 23.3781C28.608 23.1448 29.104 22.8056 29.52 22.3801L34.3 17.5401C34.6193 17.2153 35.0009 16.9585 35.4219 16.7849C35.8429 16.6114 36.2946 16.5247 36.75 16.5301ZM48.73 30.0001C48.5805 30.0007 48.4325 29.9709 48.295 29.9124C48.1574 29.854 48.0333 29.7681 47.93 29.6601L37.54 19.1201C37.4367 19.0155 37.3137 18.9325 37.1781 18.8758C37.0425 18.8192 36.897 18.79 36.75 18.7901C36.4536 18.7922 36.1699 18.9107 35.96 19.1201L31.17 24.0001C30.5462 24.6365 29.8017 25.1422 28.9801 25.4873C28.1584 25.8325 27.2762 26.0103 26.385 26.0103C25.4938 26.0103 24.6116 25.8325 23.7899 25.4873C22.9683 25.1422 22.2238 24.6365 21.6 24.0001C21.4951 23.8959 21.4118 23.7721 21.355 23.6357C21.2982 23.4992 21.2689 23.3529 21.2689 23.2051C21.2689 23.0573 21.2982 22.9109 21.355 22.7745C21.4118 22.638 21.4951 22.5142 21.6 22.4101L31.92 11.9001C32.022 11.7823 32.1478 11.6875 32.2892 11.622C32.4305 11.5564 32.5842 11.5217 32.74 11.5201H40.25L43.87 7.90006C43.975 7.79483 44.0997 7.71135 44.2369 7.65439C44.3742 7.59743 44.5214 7.56812 44.67 7.56812C44.8186 7.56812 44.9658 7.59743 45.1031 7.65439C45.2403 7.71135 45.365 7.79483 45.47 7.90006L57.45 20.0001C57.5549 20.1042 57.6382 20.228 57.695 20.3645C57.7518 20.5009 57.7811 20.6473 57.7811 20.7951C57.7811 20.9429 57.7518 21.0892 57.695 21.2257C57.6382 21.3621 57.5549 21.4859 57.45 21.5901L49.55 29.5901C49.4445 29.6979 49.3185 29.7836 49.1794 29.842C49.0403 29.9004 48.8909 29.9303 48.74 29.9301L48.73 30.0001Z" fill="#DE2627"/>
<path d="M22.39 24.31C22.1662 24.3104 21.9474 24.2443 21.7612 24.1202C21.575 23.996 21.4299 23.8194 21.3442 23.6127C21.2585 23.4059 21.2361 23.1784 21.2799 22.959C21.3236 22.7395 21.4316 22.538 21.59 22.38L27.94 15.92C28.0693 15.7911 28.2275 15.6948 28.4013 15.6392C28.5752 15.5835 28.7599 15.5701 28.94 15.6C29.1226 15.6389 29.2932 15.7209 29.4375 15.8392C29.5819 15.9575 29.6959 16.1086 29.77 16.28C29.8545 16.486 29.8768 16.7123 29.8342 16.9309C29.7915 17.1495 29.6858 17.3508 29.53 17.51L23.19 24C23.0842 24.1026 22.9589 24.1829 22.8215 24.2362C22.684 24.2894 22.5373 24.3145 22.39 24.31Z" fill="#DE2627"/>
<path d="M28.76 17.85C28.5358 17.8546 28.3154 17.7911 28.128 17.6679C27.9405 17.5447 27.7948 17.3677 27.71 17.16C27.6295 16.9479 27.6141 16.7167 27.6657 16.4958C27.7174 16.2749 27.8338 16.0744 28 15.92L32 11.86C32.1033 11.752 32.2274 11.6661 32.365 11.6077C32.5025 11.5492 32.6505 11.5194 32.8 11.52C33.0225 11.5223 33.2395 11.5897 33.4242 11.7139C33.6089 11.8381 33.7532 12.0136 33.8393 12.2188C33.9255 12.424 33.9496 12.6499 33.9089 12.8687C33.8681 13.0875 33.7642 13.2896 33.61 13.45L29.61 17.5C29.5091 17.6091 29.387 17.6965 29.2512 17.7567C29.1153 17.8168 28.9686 17.8486 28.82 17.85H28.76Z" fill="#DE2627"/>
<path d="M38.23 27.4302C37.9303 27.4296 37.6429 27.311 37.43 27.1002L36 25.6102C35.892 25.5057 35.8062 25.3806 35.7475 25.2423C35.6889 25.1041 35.6587 24.9554 35.6587 24.8052C35.6587 24.655 35.6889 24.5063 35.7475 24.368C35.8062 24.2297 35.892 24.1046 36 24.0002C36.1032 23.8921 36.2274 23.8062 36.365 23.7478C36.5025 23.6893 36.6505 23.6595 36.8 23.6602C37.0997 23.6607 37.3871 23.7793 37.6 23.9902L39 25.5102C39.155 25.6687 39.26 25.8694 39.3018 26.0871C39.3436 26.3049 39.3204 26.5301 39.2351 26.7348C39.1499 26.9395 39.0062 27.1146 38.8222 27.2382C38.6381 27.3619 38.4217 27.4286 38.2 27.4302H38.23Z" fill="#DE2627"/>
<path d="M22.39 24.31C22.1662 24.3104 21.9474 24.2443 21.7612 24.1202C21.575 23.996 21.4299 23.8194 21.3442 23.6127C21.2585 23.4059 21.2361 23.1784 21.2799 22.959C21.3236 22.7395 21.4316 22.538 21.59 22.38L27.94 15.92C28.0693 15.7911 28.2275 15.6948 28.4013 15.6392C28.5752 15.5835 28.7599 15.5701 28.94 15.6C29.1226 15.6389 29.2932 15.7209 29.4375 15.8392C29.5819 15.9575 29.6959 16.1086 29.77 16.28C29.8545 16.486 29.8768 16.7123 29.8342 16.9309C29.7915 17.1495 29.6858 17.3508 29.53 17.51L23.19 24C23.0842 24.1026 22.9589 24.1829 22.8215 24.2362C22.684 24.2894 22.5373 24.3145 22.39 24.31Z" fill="#DE2627"/>
<path d="M28.76 17.85C28.5358 17.8546 28.3154 17.7911 28.128 17.6679C27.9405 17.5447 27.7948 17.3677 27.71 17.16C27.6295 16.9479 27.6141 16.7167 27.6657 16.4958C27.7174 16.2749 27.8338 16.0744 28 15.92L32 11.86C32.1073 11.7518 32.2351 11.6661 32.3759 11.6077C32.5166 11.5493 32.6676 11.5195 32.82 11.52C32.9701 11.5212 33.1184 11.5529 33.2559 11.6131C33.3934 11.6732 33.5172 11.7606 33.62 11.87C33.8271 12.0829 33.9429 12.3681 33.9429 12.665C33.9429 12.962 33.8271 13.2472 33.62 13.46L29.62 17.51C29.5167 17.6181 29.3925 17.7039 29.255 17.7624C29.1175 17.8209 28.9694 17.8507 28.82 17.85H28.76Z" fill="#DE2627"/>
<path d="M28.37 33.0002L27.84 32.3102L28.37 33.0002ZM28.53 34.3302C28.3363 34.3296 28.1459 34.2793 27.9773 34.184C27.8086 34.0886 27.6673 33.9516 27.5669 33.7859C27.4664 33.6202 27.4103 33.4315 27.4039 33.2379C27.3974 33.0442 27.4408 32.8522 27.53 32.6802C27.53 32.6102 27.62 32.5402 27.67 32.4702L27.77 32.3602L27.97 32.1502C28.0746 32.0453 28.1995 31.9628 28.337 31.9078C28.4746 31.8528 28.6219 31.8264 28.77 31.8302C28.9218 31.8295 29.0722 31.8602 29.2116 31.9204C29.351 31.9807 29.4764 32.0691 29.58 32.1802C29.691 32.2969 29.7768 32.4354 29.8319 32.5868C29.8869 32.7382 29.9101 32.8994 29.9 33.0602C29.891 33.2211 29.8481 33.3782 29.774 33.5213C29.6999 33.6644 29.5962 33.7901 29.47 33.8902L29.21 34.1102C29.0053 34.2333 28.7685 34.2925 28.53 34.2802V34.3302Z" fill="#DE2627"/>
<path d="M32.74 34.73H32.63C32.4628 34.7186 32.3004 34.6695 32.1549 34.5863C32.0095 34.5032 31.8847 34.3882 31.79 34.25L31.71 34.14C31.5224 33.9165 31.4286 33.629 31.4482 33.3379C31.4678 33.0467 31.5992 32.7744 31.815 32.578C32.0308 32.3816 32.3143 32.2763 32.606 32.2841C32.8977 32.2919 33.175 32.4123 33.38 32.62L33.55 32.78C33.7664 32.9909 33.892 33.2779 33.9 33.58C33.9004 33.8858 33.7821 34.1797 33.57 34.4C33.3434 34.6085 33.0479 34.726 32.74 34.73Z" fill="#DE2627"/>
<path d="M28.77 42.14C28.6208 42.14 28.473 42.1104 28.3352 42.053C28.1975 41.9956 28.0725 41.9115 27.9674 41.8055C27.8623 41.6995 27.7793 41.5737 27.7231 41.4355C27.6669 41.2972 27.6387 41.1492 27.64 41C27.6347 40.7001 27.7458 40.4097 27.95 40.19L29.95 38.19L30.07 38.08C30.1734 37.9739 30.297 37.8895 30.4336 37.8319C30.5701 37.7743 30.7168 37.7446 30.865 37.7446C31.0132 37.7446 31.1599 37.7743 31.2964 37.8319C31.433 37.8895 31.5566 37.9739 31.66 38.08C31.7652 38.185 31.8487 38.3096 31.9057 38.4469C31.9626 38.5842 31.9919 38.7314 31.9919 38.88C31.9919 39.0286 31.9626 39.1758 31.9057 39.313C31.8487 39.4503 31.7652 39.575 31.66 39.68L29.56 41.8C29.4572 41.9059 29.3345 41.9905 29.1989 42.0488C29.0634 42.1072 28.9176 42.1382 28.77 42.14Z" fill="#DE2627"/>
<path d="M38.23 27.4302C37.9303 27.4296 37.6429 27.311 37.43 27.1002L36 25.6102C35.892 25.5057 35.8062 25.3806 35.7475 25.2423C35.6889 25.1041 35.6587 24.9554 35.6587 24.8052C35.6587 24.655 35.6889 24.5063 35.7475 24.368C35.8062 24.2297 35.892 24.1046 36 24.0002C36.1032 23.8921 36.2274 23.8062 36.365 23.7478C36.5025 23.6893 36.6505 23.6595 36.8 23.6602C37.0997 23.6607 37.3871 23.7793 37.6 23.9902L39 25.5102C39.155 25.6687 39.26 25.8694 39.3018 26.0871C39.3436 26.3049 39.3204 26.5301 39.2351 26.7348C39.1499 26.9395 39.0062 27.1146 38.8222 27.2382C38.6381 27.3619 38.4217 27.4286 38.2 27.4302H38.23Z" fill="#DE2627"/>
<path d="M38.23 27.4302C37.9303 27.4296 37.6429 27.311 37.43 27.1002L36 25.6102C35.892 25.5057 35.8062 25.3806 35.7475 25.2423C35.6889 25.1041 35.6587 24.9554 35.6587 24.8052C35.6587 24.655 35.6889 24.5063 35.7475 24.368C35.8062 24.2297 35.892 24.1046 36 24.0002C36.1032 23.8921 36.2274 23.8062 36.365 23.7478C36.5025 23.6893 36.6505 23.6595 36.8 23.6602C37.0997 23.6607 37.3871 23.7793 37.6 23.9902L39 25.5102C39.155 25.6687 39.26 25.8694 39.3018 26.0871C39.3436 26.3049 39.3204 26.5301 39.2351 26.7348C39.1499 26.9395 39.0062 27.1146 38.8222 27.2382C38.6381 27.3619 38.4217 27.4286 38.2 27.4302H38.23Z" fill="#DE2627"/>
<path d="M44.43 6.83008L58.71 21.3401L62.71 17.2401L48.47 2.73008L44.43 6.83008ZM58.71 24.0701C58.4103 24.0695 58.1229 23.951 57.91 23.7401L42.05 7.62008C41.8435 7.40894 41.728 7.12537 41.728 6.83008C41.728 6.53478 41.8435 6.25122 42.05 6.04008L47.69 0.340078C47.7944 0.232115 47.9195 0.146262 48.0578 0.0876283C48.1961 0.0289949 48.3448 -0.0012207 48.495 -0.0012207C48.6452 -0.0012207 48.7939 0.0289949 48.9322 0.0876283C49.0705 0.146262 49.1956 0.232115 49.3 0.340078L65.16 16.4501C65.3664 16.6612 65.482 16.9448 65.482 17.2401C65.482 17.5354 65.3664 17.8189 65.16 18.0301L59.52 23.7401C59.4134 23.8457 59.2869 23.9292 59.1479 23.9858C59.0089 24.0425 58.8601 24.0711 58.71 24.0701Z" fill="#DE2627"/>
<path d="M22.39 24.31C22.1662 24.3104 21.9474 24.2443 21.7612 24.1202C21.575 23.996 21.4299 23.8194 21.3442 23.6127C21.2585 23.4059 21.2361 23.1784 21.2799 22.959C21.3236 22.7395 21.4316 22.538 21.59 22.38L27.94 15.92C28.0693 15.7911 28.2275 15.6948 28.4013 15.6392C28.5752 15.5835 28.7599 15.5701 28.94 15.6C29.1226 15.6389 29.2932 15.7209 29.4375 15.8392C29.5819 15.9575 29.6959 16.1086 29.77 16.28C29.8545 16.486 29.8768 16.7123 29.8342 16.9309C29.7915 17.1495 29.6858 17.3508 29.53 17.51L23.19 24C23.0842 24.1026 22.9589 24.1829 22.8215 24.2362C22.684 24.2894 22.5373 24.3145 22.39 24.31Z" fill="#DE2627"/>
<path d="M28.37 33.0002L27.84 32.3102L28.37 33.0002ZM28.53 34.3302C28.3363 34.3296 28.1459 34.2793 27.9773 34.184C27.8086 34.0886 27.6673 33.9516 27.5669 33.7859C27.4664 33.6202 27.4103 33.4315 27.4039 33.2379C27.3974 33.0442 27.4408 32.8522 27.53 32.6802C27.53 32.6102 27.62 32.5402 27.67 32.4702L27.77 32.3602L27.97 32.1502C28.0746 32.0453 28.1995 31.9628 28.337 31.9078C28.4746 31.8528 28.6219 31.8264 28.77 31.8302C28.9218 31.8295 29.0722 31.8602 29.2116 31.9204C29.351 31.9807 29.4764 32.0691 29.58 32.1802C29.691 32.2969 29.7768 32.4354 29.8319 32.5868C29.8869 32.7382 29.9101 32.8994 29.9 33.0602C29.891 33.2211 29.8481 33.3782 29.774 33.5213C29.6999 33.6644 29.5962 33.7901 29.47 33.8902L29.21 34.1102C29.0053 34.2333 28.7685 34.2925 28.53 34.2802V34.3302Z" fill="#DE2627"/>
<path d="M32.74 34.76H32.63C32.4648 34.7427 32.3055 34.6888 32.1637 34.6024C32.0219 34.5159 31.901 34.3989 31.81 34.26L31.72 34.14C31.5324 33.9165 31.4386 33.629 31.4582 33.3379C31.4778 33.0467 31.6092 32.7744 31.825 32.578C32.0408 32.3816 32.3243 32.2763 32.616 32.2841C32.9077 32.2919 33.185 32.4123 33.39 32.62L33.56 32.78C33.7764 32.9909 33.902 33.2779 33.91 33.58C33.911 33.7301 33.8824 33.8789 33.8258 34.0179C33.7691 34.1569 33.6856 34.2834 33.58 34.39C33.4737 34.507 33.344 34.6004 33.1993 34.6641C33.0546 34.7279 32.8981 34.7605 32.74 34.76Z" fill="#DE2627"/>
<path d="M2.71 17.24L6.76999 21.34L21.06 6.83L17.06 2.73L2.71 17.24ZM6.76999 24.07C6.47032 24.0694 6.18292 23.9509 5.96999 23.74L0.319995 18.07C0.113549 17.8589 -0.00204468 17.5753 -0.00204468 17.28C-0.00204468 16.9847 0.113549 16.7011 0.319995 16.49L16.22 0.340002C16.3209 0.234373 16.4419 0.149905 16.5758 0.0915293C16.7097 0.0331535 16.8539 0.00203888 17 1.83764e-06C17.1509 -0.000270245 17.3003 0.029674 17.4394 0.0880684C17.5785 0.146463 17.7045 0.232125 17.81 0.340002L23.47 6C23.6764 6.21114 23.792 6.49471 23.792 6.79C23.792 7.0853 23.6764 7.36886 23.47 7.58L7.54999 23.71C7.34791 23.9299 7.06818 24.0626 6.76999 24.08V24.07Z" fill="#DE2627"/>
<path d="M47.13 35.2801C46.615 35.2841 46.1043 35.1863 45.6273 34.9924C45.1502 34.7985 44.7161 34.5122 44.35 34.1501L36 25.6401C35.8939 25.5367 35.8095 25.4131 35.7519 25.2765C35.6943 25.14 35.6646 24.9933 35.6646 24.8451C35.6646 24.6969 35.6943 24.5502 35.7519 24.4137C35.8095 24.2771 35.8939 24.1535 36 24.0501C36.105 23.9449 36.2297 23.8614 36.3669 23.8044C36.5042 23.7475 36.6514 23.7182 36.8 23.7182C36.9486 23.7182 37.0958 23.7475 37.2331 23.8044C37.3703 23.8614 37.495 23.9449 37.6 24.0501L46 32.5701C46.3134 32.8825 46.7375 33.0585 47.18 33.0601C47.6284 33.0584 48.0586 32.8828 48.38 32.5701C48.6979 32.2355 48.8752 31.7916 48.8752 31.3301C48.8752 30.8686 48.6979 30.4247 48.38 30.0901L40 21.6001C39.8679 21.5052 39.7578 21.3829 39.6773 21.2416C39.5968 21.1002 39.5477 20.9432 39.5335 20.7811C39.5192 20.6191 39.5401 20.4559 39.5948 20.3027C39.6494 20.1495 39.7365 20.0099 39.85 19.8934C39.9636 19.7769 40.101 19.6863 40.2527 19.6278C40.4045 19.5693 40.5672 19.5443 40.7295 19.5544C40.8918 19.5646 41.0501 19.6096 41.1934 19.6865C41.3368 19.7635 41.4618 19.8704 41.56 20.0001L49.94 28.5001C50.688 29.25 51.1081 30.2659 51.1081 31.3251C51.1081 32.3843 50.688 33.4002 49.94 34.1501C49.5688 34.5132 49.1294 34.7991 48.6471 34.9913C48.1648 35.1835 47.6491 35.2783 47.13 35.2701V35.2801Z" fill="#DE2627"/>
<path d="M38.23 27.4302C37.9303 27.4296 37.6429 27.311 37.43 27.1002L36 25.6102C35.892 25.5057 35.8062 25.3806 35.7475 25.2423C35.6889 25.1041 35.6587 24.9554 35.6587 24.8052C35.6587 24.655 35.6889 24.5063 35.7475 24.368C35.8062 24.2297 35.892 24.1046 36 24.0002C36.1032 23.8921 36.2274 23.8062 36.365 23.7478C36.5025 23.6893 36.6505 23.6595 36.8 23.6602C37.0997 23.6607 37.3871 23.7793 37.6 23.9902L39 25.5102C39.155 25.6687 39.26 25.8694 39.3018 26.0871C39.3436 26.3049 39.3204 26.5301 39.2351 26.7348C39.1499 26.9395 39.0062 27.1146 38.8222 27.2382C38.6381 27.3619 38.4217 27.4286 38.2 27.4302H38.23Z" fill="#DE2627"/>
<path d="M39.15 43.37C38.6302 43.3763 38.1143 43.2797 37.6321 43.0858C37.1498 42.8918 36.7107 42.6044 36.34 42.24L33.94 39.81C33.7278 39.5978 33.6086 39.31 33.6086 39.01C33.6086 38.7099 33.7278 38.4221 33.94 38.21C34.1522 37.9978 34.4399 37.8786 34.74 37.8786C35.0401 37.8786 35.3278 37.9978 35.54 38.21L38 40.65C38.1562 40.8081 38.3423 40.9336 38.5475 41.0193C38.7526 41.105 38.9727 41.1491 39.195 41.1491C39.4173 41.1491 39.6374 41.105 39.8425 41.0193C40.0477 40.9336 40.2337 40.8081 40.39 40.65C40.7119 40.3195 40.8921 39.8763 40.8921 39.415C40.8921 38.9536 40.7119 38.5105 40.39 38.18L40 37.87L39.91 37.78L31.91 29.65C31.8039 29.5465 31.7195 29.4229 31.6619 29.2864C31.6043 29.1498 31.5746 29.0032 31.5746 28.855C31.5746 28.7068 31.6043 28.5601 31.6619 28.4235C31.7195 28.287 31.8039 28.1634 31.91 28.06C32.015 27.9547 32.1397 27.8713 32.2769 27.8143C32.4142 27.7573 32.5614 27.728 32.71 27.728C32.8586 27.728 33.0058 27.7573 33.1431 27.8143C33.2803 27.8713 33.405 27.9547 33.51 28.06L41.41 36.06L41.5 36.15L41.9 36.54C42.648 37.2898 43.0681 38.3058 43.0681 39.365C43.0681 40.4242 42.648 41.4401 41.9 42.19C41.5425 42.5589 41.1154 42.8532 40.6433 43.0558C40.1713 43.2583 39.6637 43.3651 39.15 43.37Z" fill="#DE2627"/>
<path d="M32.74 34.76H32.63C32.4648 34.7427 32.3055 34.6888 32.1637 34.6024C32.0219 34.5159 31.901 34.3989 31.81 34.26L31.72 34.14C31.5324 33.9165 31.4386 33.629 31.4582 33.3379C31.4778 33.0467 31.6092 32.7744 31.825 32.578C32.0408 32.3816 32.3243 32.2763 32.616 32.2841C32.9077 32.2919 33.185 32.4123 33.39 32.62L33.56 32.78C33.7764 32.9909 33.902 33.2779 33.91 33.58C33.911 33.7301 33.8824 33.8789 33.8258 34.0179C33.7691 34.1569 33.6856 34.2834 33.58 34.39C33.4737 34.507 33.344 34.6004 33.1993 34.6641C33.0546 34.7279 32.8981 34.7605 32.74 34.76Z" fill="#DE2627"/>
<path d="M35.15 47.4301C34.6313 47.4396 34.116 47.3444 33.6349 47.1503C33.1538 46.9561 32.7168 46.667 32.35 46.3001L32 45.9101C31.8854 45.8009 31.795 45.6688 31.7347 45.5223C31.6744 45.3759 31.6455 45.2184 31.65 45.0601C31.6522 44.7578 31.7703 44.4679 31.98 44.2501L33.98 42.2501C34.085 42.1449 34.2097 42.0614 34.3469 42.0045C34.4842 41.9475 34.6314 41.9182 34.78 41.9182C34.9286 41.9182 35.0758 41.9475 35.2131 42.0045C35.3503 42.0614 35.475 42.1449 35.58 42.2501C35.6849 42.3542 35.7682 42.4781 35.825 42.6145C35.8818 42.751 35.9111 42.8973 35.9111 43.0451C35.9111 43.1929 35.8818 43.3393 35.825 43.4757C35.7682 43.6122 35.6849 43.736 35.58 43.8401L34.45 44.9701C34.6835 45.0959 34.9448 45.1612 35.21 45.1601C35.6358 45.1488 36.0407 44.9732 36.34 44.6701C36.6661 44.3438 36.8493 43.9014 36.8493 43.4401C36.8493 42.9788 36.6661 42.5364 36.34 42.2101C36.1762 41.9843 36.1001 41.7066 36.1258 41.4288C36.1516 41.151 36.2775 40.892 36.48 40.7001C36.6874 40.5139 36.9563 40.4109 37.235 40.4109C37.5137 40.4109 37.7826 40.5139 37.99 40.7001C38.738 41.45 39.1581 42.4659 39.1581 43.5251C39.1581 44.5843 38.738 45.6003 37.99 46.3501C37.6232 46.717 37.1862 47.0061 36.7051 47.2003C36.224 47.3944 35.7087 47.4896 35.19 47.4801L35.15 47.4301Z" fill="#DE2627"/>
<path d="M28.37 33.0002L27.84 32.3102L28.37 33.0002ZM28.53 34.3302C28.3363 34.3296 28.1459 34.2793 27.9773 34.184C27.8086 34.0886 27.6673 33.9516 27.5669 33.7859C27.4664 33.6202 27.4103 33.4315 27.4039 33.2379C27.3974 33.0442 27.4408 32.8522 27.53 32.6802C27.53 32.6102 27.62 32.5402 27.67 32.4702L27.77 32.3602L27.97 32.1502C28.0746 32.0453 28.1995 31.9628 28.337 31.9078C28.4746 31.8528 28.6219 31.8264 28.77 31.8302C28.9218 31.8295 29.0722 31.8602 29.2116 31.9204C29.351 31.9807 29.4764 32.0691 29.58 32.1802C29.691 32.2969 29.7768 32.4354 29.8319 32.5868C29.8869 32.7382 29.9101 32.8994 29.9 33.0602C29.891 33.2211 29.8481 33.3782 29.774 33.5213C29.6999 33.6644 29.5962 33.7901 29.47 33.8902L29.21 34.1102C29.0053 34.2333 28.7685 34.2925 28.53 34.2802V34.3302Z" fill="#DE2627"/>
<path d="M28.77 42.14C28.6208 42.14 28.473 42.1104 28.3352 42.053C28.1975 41.9956 28.0725 41.9115 27.9674 41.8055C27.8623 41.6995 27.7793 41.5737 27.7231 41.4355C27.6669 41.2972 27.6387 41.1492 27.64 41C27.6347 40.7001 27.7458 40.4097 27.95 40.19L29.95 38.19L30.07 38.08C30.1734 37.9739 30.297 37.8895 30.4336 37.8319C30.5701 37.7743 30.7168 37.7446 30.865 37.7446C31.0132 37.7446 31.1599 37.7743 31.2964 37.8319C31.433 37.8895 31.5566 37.9739 31.66 38.08C31.7652 38.185 31.8487 38.3096 31.9057 38.4469C31.9626 38.5842 31.9919 38.7314 31.9919 38.88C31.9919 39.0286 31.9626 39.1758 31.9057 39.313C31.8487 39.4503 31.7652 39.575 31.66 39.68L29.56 41.8C29.4572 41.9059 29.3345 41.9905 29.1989 42.0488C29.0634 42.1072 28.9176 42.1382 28.77 42.14Z" fill="#DE2627"/>
<path d="M29.29 34.0002L25.18 38.1701C24.8587 38.499 24.6788 38.9404 24.6788 39.4002C24.6788 39.8599 24.8587 40.3013 25.18 40.6302C25.4737 40.926 25.8673 41.1013 26.2837 41.1216C26.7 41.142 27.1089 41.0059 27.43 40.7402L27.55 40.6201L29.94 38.1901L30.06 38.0802L30.19 37.9502L31.61 36.5202L31.81 36.2801C32.0171 35.9878 32.1283 35.6384 32.1283 35.2801C32.1283 34.9219 32.0171 34.5725 31.81 34.2801L31.61 34.0502C31.3306 33.7704 30.9605 33.5996 30.5664 33.5684C30.1722 33.5373 29.7799 33.6478 29.46 33.8802L29.29 34.0002ZM26.36 43.3701C25.3183 43.3711 24.3174 42.9657 23.57 42.2402C22.825 41.4907 22.4068 40.4769 22.4068 39.4201C22.4068 38.3634 22.825 37.3496 23.57 36.6001L27.72 32.4102L27.84 32.2902L28.12 32.0702C28.888 31.5272 29.8227 31.2723 30.76 31.3502C31.6939 31.4353 32.5681 31.8459 33.23 32.5101L33.45 32.7601C33.5246 32.844 33.5915 32.9344 33.65 33.0301C34.1167 33.7007 34.3669 34.4981 34.3669 35.3151C34.3669 36.1322 34.1167 36.9296 33.65 37.6001C33.5176 37.7791 33.374 37.9494 33.22 38.1102L31.77 39.5301L31.61 39.6701L29.16 42.1602C29.0959 42.2762 28.9983 42.3703 28.88 42.4302C28.1737 43.025 27.2833 43.3571 26.36 43.3701Z" fill="#DE2627"/>
<path d="M28.23 42.6501C27.9691 42.6479 27.7161 42.5601 27.51 42.4001C27.2923 42.2232 27.1482 41.9717 27.1057 41.6944C27.0632 41.4172 27.1253 41.1341 27.28 40.9001C27.3486 40.7973 27.4255 40.7003 27.51 40.6101L29.91 38.1801L30.02 38.0701C30.1218 37.9541 30.2462 37.8603 30.3856 37.7942C30.5251 37.7282 30.6766 37.6915 30.8307 37.6862C30.9849 37.681 31.1386 37.7073 31.2822 37.7637C31.4258 37.8201 31.5563 37.9053 31.6657 38.014C31.7752 38.1228 31.8612 38.2528 31.9184 38.396C31.9757 38.5393 32.0031 38.6927 31.9988 38.8469C31.9945 39.0011 31.9587 39.1529 31.8935 39.2927C31.8284 39.4325 31.7353 39.5576 31.62 39.6601L29 42.3101C28.8967 42.4181 28.7726 42.504 28.635 42.5624C28.4975 42.6209 28.3494 42.6507 28.2 42.6501H28.23Z" fill="#DE2627"/>
<path d="M29 42.3901C28.8087 42.6441 28.6912 42.9459 28.6603 43.2624C28.6294 43.5789 28.6863 43.8977 28.8248 44.184C28.9632 44.4702 29.1779 44.7127 29.4452 44.8849C29.7125 45.0571 30.0221 45.1523 30.34 45.1601C30.5601 45.1596 30.7779 45.1152 30.9805 45.0293C31.1832 44.9434 31.3666 44.8179 31.52 44.6601L33.93 42.2201C34.0944 42.0623 34.2253 41.8729 34.3147 41.6632C34.404 41.4536 34.4501 41.228 34.45 41.0001C34.4504 40.7715 34.4056 40.5452 34.3181 40.334C34.2305 40.1229 34.102 39.9312 33.94 39.7701C33.6496 39.4657 33.2539 39.2838 32.8338 39.2615C32.4137 39.2392 32.001 39.3782 31.68 39.6501L29.06 42.3101L29 42.3901ZM30.35 47.3901C29.8272 47.3906 29.3096 47.2855 28.8285 47.081C28.3473 46.8765 27.9125 46.5768 27.55 46.2001C26.8447 45.4844 26.4346 44.5295 26.4013 43.5252C26.3679 42.521 26.7138 41.541 27.37 40.7801L27.51 40.6501L30.07 38.0501C30.1496 37.9658 30.2366 37.8888 30.33 37.8201C31.086 37.2222 32.0387 36.9296 33 37.0001C33.9648 37.064 34.8723 37.4804 35.55 38.1701C36.298 38.9199 36.7181 39.9359 36.7181 40.9951C36.7181 42.0543 36.298 43.0702 35.55 43.8201L33.15 46.3001C32.7832 46.6669 32.3461 46.9561 31.8651 47.1502C31.384 47.3444 30.8687 47.4395 30.35 47.4301V47.3901Z" fill="#DE2627"/>
<path d="M28.23 42.6501C27.9691 42.6479 27.7161 42.5601 27.51 42.4001C27.2923 42.2232 27.1482 41.9717 27.1057 41.6944C27.0632 41.4172 27.1253 41.1341 27.28 40.9001C27.3486 40.7973 27.4255 40.7003 27.51 40.6101L29.91 38.1801L30.02 38.0701C30.1218 37.9541 30.2462 37.8603 30.3856 37.7942C30.5251 37.7282 30.6766 37.6915 30.8307 37.6862C30.9849 37.681 31.1386 37.7073 31.2822 37.7637C31.4258 37.8201 31.5563 37.9053 31.6657 38.014C31.7752 38.1228 31.8612 38.2528 31.9184 38.396C31.9757 38.5393 32.0031 38.6927 31.9988 38.8469C31.9945 39.0011 31.9587 39.1529 31.8935 39.2927C31.8284 39.4325 31.7353 39.5576 31.62 39.6601L29 42.3101C28.8967 42.4181 28.7726 42.504 28.635 42.5624C28.4975 42.6209 28.3494 42.6507 28.2 42.6501H28.23Z" fill="#DE2627"/>
<path d="M26.43 29.4701C25.9792 29.4791 25.5494 29.6618 25.23 29.9801L21.17 34.1101C20.857 34.4391 20.6824 34.8759 20.6824 35.3301C20.6824 35.7842 20.857 36.221 21.17 36.5501C21.3248 36.7107 21.5105 36.8384 21.7158 36.9257C21.9211 37.0129 22.1419 37.0579 22.365 37.0579C22.5881 37.0579 22.8089 37.0129 23.0142 36.9257C23.2195 36.8384 23.4052 36.7107 23.56 36.5501L27.67 32.4001C27.9317 32.0816 28.0747 31.6822 28.0747 31.2701C28.0747 30.8579 27.9317 30.4585 27.67 30.1401C27.6329 30.091 27.5929 30.0442 27.55 30.0001H27.49C27.2051 29.7189 26.8292 29.5487 26.43 29.5201V29.4701ZM22.38 39.3201C21.8616 39.3273 21.347 39.2311 20.8662 39.037C20.3854 38.843 19.9482 38.5551 19.58 38.1901C18.8319 37.4402 18.4118 36.4243 18.4118 35.3651C18.4118 34.3059 18.8319 33.2899 19.58 32.5401L23.63 28.4301C24.3483 27.7276 25.3045 27.3212 26.3088 27.2915C27.313 27.2619 28.2916 27.6112 29.05 28.2701C29.1205 28.3221 29.1843 28.3825 29.24 28.4501C29.351 28.5597 29.4545 28.6767 29.55 28.8001C30.1054 29.5197 30.399 30.407 30.3827 31.3159C30.3663 32.2247 30.0409 33.1009 29.46 33.8001L29.38 33.9001L25.18 38.1201C24.4301 38.8481 23.4251 39.2537 22.38 39.2501V39.3201Z" fill="#DE2627"/>
<path d="M20.78 27.1C20.5584 27.1002 20.339 27.1445 20.1347 27.2304C19.9304 27.3162 19.7453 27.4419 19.59 27.6L17.19 30C16.8727 30.3329 16.6957 30.7751 16.6957 31.235C16.6957 31.6949 16.8727 32.1371 17.19 32.47C17.5104 32.7854 17.9404 32.9646 18.39 32.97C18.8365 32.9641 19.2633 32.7848 19.58 32.47L22 30.06C22.3261 29.7337 22.5093 29.2913 22.5093 28.83C22.5093 28.3687 22.3261 27.9263 22 27.6C21.8769 27.4685 21.7313 27.3602 21.57 27.28C21.4666 27.2238 21.3554 27.1833 21.24 27.16C21.0904 27.1179 20.9354 27.0977 20.78 27.1ZM18.39 35.28C17.3449 35.2836 16.3399 34.878 15.59 34.15C14.8419 33.4001 14.4218 32.3842 14.4218 31.325C14.4218 30.2658 14.8419 29.2499 15.59 28.5L18 26.07C18.7499 25.342 19.7549 24.9364 20.8 24.94C21.1212 24.9382 21.4411 24.982 21.75 25.07C22.0534 25.131 22.3464 25.2354 22.62 25.38C22.9899 25.573 23.3273 25.8227 23.62 26.12C24.365 26.8694 24.7832 27.8832 24.7832 28.94C24.7832 29.9967 24.365 31.0105 23.62 31.76L21.2 34.23C20.4617 34.9571 19.4662 35.3632 18.43 35.36L18.39 35.28Z" fill="#DE2627"/>
</g>
<defs>
<clipPath id="clip0_1994_2279">
<rect width="65.49" height="47.43" fill="white"/>
</clipPath>
</defs>
</svg>
