<svg width="13" height="17" viewBox="0 0 13 17" fill="none" xmlns="http://www.w3.org/2000/svg">
<g clip-path="url(#clip0_1994_2433)">
<path d="M12.0961 8.87887H12.7514C12.784 8.87895 12.8163 8.87264 12.8465 8.86032C12.8766 8.848 12.9039 8.82991 12.9269 8.8071C12.95 8.78514 12.9684 8.75882 12.981 8.72972C12.9936 8.70062 13 8.66934 13 8.63774V7.53253C12.9995 7.46794 12.9733 7.40611 12.9269 7.36029C12.8795 7.31607 12.8167 7.2914 12.7514 7.2914H8.07088V7.11342C8.18127 7.15055 8.29909 7.16132 8.41458 7.14485C8.53006 7.12837 8.63987 7.08512 8.73492 7.01869C8.82879 6.95369 8.90558 6.86775 8.95898 6.76793C9.01238 6.66812 9.04086 6.55728 9.04208 6.44456V4.18822C9.04208 3.74562 8.86311 3.3211 8.54446 3.00786C8.22581 2.69462 7.79351 2.51826 7.34248 2.5175H6.64041C6.96697 2.48085 7.26687 2.32299 7.47861 2.07629C7.69035 1.82959 7.7979 1.51274 7.77919 1.19072C7.76049 0.868691 7.61695 0.565889 7.37801 0.344399C7.13907 0.122908 6.82284 -0.000488281 6.49415 -0.000488281C6.16546 -0.000488281 5.84923 0.122908 5.61029 0.344399C5.37135 0.565889 5.22781 0.868691 5.20911 1.19072C5.1904 1.51274 5.29795 1.82959 5.50969 2.07629C5.72143 2.32299 6.02133 2.48085 6.34789 2.5175H5.66922C5.21815 2.51902 4.78601 2.69552 4.46706 3.00852C4.14811 3.32151 3.96824 3.74559 3.9667 4.18822V6.43307C3.96696 6.54752 3.995 6.66026 4.0485 6.76196C4.102 6.86365 4.17942 6.95138 4.27434 7.01788C4.36926 7.08437 4.47896 7.12772 4.59435 7.14434C4.70974 7.16095 4.82751 7.15035 4.93789 7.11342V7.2914H0.245725C0.180554 7.2914 0.118053 7.3168 0.0719711 7.36203C0.0258888 7.40725 4.6134e-08 7.46858 4.6134e-08 7.53253V8.63774C-1.99262e-05 8.66934 0.00644508 8.70062 0.0190096 8.72972C0.0315741 8.75882 0.0499809 8.78514 0.0731324 8.8071C0.095619 8.82969 0.122457 8.84767 0.152086 8.85999C0.181716 8.87231 0.213545 8.87873 0.245725 8.87887H1.39829V11.1955H11.6017V8.87887H12.0961ZM5.70725 1.26303C5.7067 1.16115 5.72686 1.06019 5.76654 0.966047C5.80622 0.871904 5.86462 0.786468 5.93834 0.714734C6.08716 0.568186 6.28917 0.485589 6.5 0.485082C6.60421 0.484703 6.70748 0.504566 6.80383 0.543527C6.90019 0.582488 6.98773 0.639777 7.06142 0.712091C7.13512 0.784406 7.19349 0.870317 7.2332 0.964873C7.2729 1.05943 7.29314 1.16076 7.29275 1.26303C7.29207 1.46933 7.20912 1.66716 7.06166 1.81419C6.95078 1.92343 6.80933 1.99787 6.65526 2.02806C6.50119 2.05826 6.34145 2.04285 6.19633 1.98379C6.0512 1.92473 5.92723 1.82469 5.84015 1.69636C5.75307 1.56803 5.70681 1.4172 5.70725 1.26303ZM5.41472 6.47039C5.41628 6.458 5.41628 6.44547 5.41472 6.43307V4.42362C5.40808 4.36383 5.37918 4.30856 5.33356 4.2684C5.28794 4.22825 5.22881 4.20604 5.16753 4.20604C5.10625 4.20604 5.04712 4.22825 5.0015 4.2684C4.95588 4.30856 4.92698 4.36383 4.92034 4.42362V6.43307C4.91383 6.49066 4.88591 6.54386 4.84192 6.5825C4.79794 6.62115 4.74097 6.64251 4.68193 6.64251C4.62289 6.64251 4.56593 6.62115 4.52194 6.5825C4.47795 6.54386 4.45003 6.49066 4.44352 6.43307V4.18822C4.44352 3.87379 4.57081 3.57223 4.79738 3.34989C5.02395 3.12755 5.33124 3.00264 5.65167 3.00264H7.31323C7.63365 3.00264 7.94095 3.12755 8.16752 3.34989C8.39409 3.57223 8.52138 3.87379 8.52138 4.18822V6.43307C8.52138 6.4955 8.49611 6.55538 8.45112 6.59952C8.40613 6.64367 8.34512 6.66847 8.2815 6.66847C8.21788 6.66847 8.15687 6.64367 8.11189 6.59952C8.0669 6.55538 8.04163 6.4955 8.04163 6.43307V4.42362C8.04163 4.35966 8.01574 4.29833 7.96966 4.25311C7.92358 4.20789 7.86107 4.18248 7.7959 4.18248C7.73073 4.18248 7.66823 4.20789 7.62215 4.25311C7.57607 4.29833 7.55018 4.35966 7.55018 4.42362V7.29427H5.41472V6.48762C5.42128 6.48348 5.42638 6.47747 5.42934 6.47039H5.41472ZM0.494374 7.77367H12.5056V8.39373H0.494374V7.77367ZM11.1161 10.7936H1.89851V8.876H11.1161V10.7936Z" fill="#E42426"/>
<path d="M6.49999 14.7808C6.85714 14.7816 7.1994 14.9213 7.45167 15.1694C7.70394 15.4175 7.84562 15.7537 7.84562 16.1042V16.5147H5.15143V16.1042C5.15143 15.7532 5.2935 15.4166 5.54641 15.1684C5.79931 14.9202 6.14232 14.7808 6.49999 14.7808ZM5.67505 13.2335C5.67515 13.1004 5.70872 12.9693 5.77279 12.8519C5.83686 12.7345 5.92946 12.6344 6.04238 12.5605C6.15529 12.4867 6.28503 12.4413 6.4201 12.4284C6.55517 12.4155 6.6914 12.4355 6.8167 12.4866C6.94201 12.5377 7.05253 12.6184 7.13846 12.7215C7.2244 12.8245 7.28309 12.9468 7.30934 13.0775C7.33559 13.2081 7.32859 13.3431 7.28895 13.4705C7.24932 13.5979 7.17827 13.7137 7.08212 13.8077C6.96658 13.9206 6.81954 13.9974 6.65955 14.0283C6.49957 14.0593 6.33383 14.043 6.18327 13.9816C6.0327 13.9201 5.90407 13.8163 5.81361 13.6831C5.72316 13.55 5.67494 13.3935 5.67505 13.2335ZM4.65998 16.1042V16.7587C4.65957 16.7901 4.66558 16.8212 4.67764 16.8503C4.68969 16.8794 4.70756 16.9058 4.73018 16.9281C4.77687 16.9736 4.83988 16.9994 4.9057 16.9998H8.09427C8.12648 16.9998 8.15835 16.9935 8.18801 16.9812C8.21766 16.9688 8.24448 16.9508 8.26686 16.9281C8.28988 16.906 8.3082 16.8797 8.32076 16.8506C8.33331 16.8215 8.33985 16.7903 8.34 16.7587V16.1042C8.3395 15.725 8.21774 15.3555 7.99189 15.0478C7.76435 14.7412 7.44545 14.5115 7.07919 14.3904C7.34515 14.2609 7.55869 14.047 7.68514 13.7834C7.8116 13.5198 7.84353 13.222 7.77577 12.9384C7.708 12.6547 7.54452 12.4019 7.31186 12.2209C7.0792 12.0399 6.79102 11.9414 6.49413 11.9414C6.19725 11.9414 5.90907 12.0399 5.67641 12.2209C5.44375 12.4019 5.28026 12.6547 5.2125 12.9384C5.14474 13.222 5.17667 13.5198 5.30313 13.7834C5.42958 14.047 5.64312 14.2609 5.90908 14.3904C5.54144 14.5112 5.22198 14.7426 4.99615 15.0519C4.77032 15.3611 4.64961 15.7323 4.6512 16.1128L4.65998 16.1042Z" fill="#E42426"/>
<path d="M10.6159 14.7809C10.9731 14.7824 11.3152 14.9223 11.5678 15.1701C11.8203 15.418 11.9629 15.7537 11.9645 16.1042V16.5147H9.26733V16.1042C9.26733 15.7533 9.40941 15.4167 9.66232 15.1685C9.91522 14.9203 10.2582 14.7809 10.6159 14.7809ZM9.79388 13.2336C9.79388 13.0197 9.88049 12.8145 10.0346 12.6632C10.1888 12.5119 10.3979 12.4269 10.6159 12.4269C10.8339 12.4269 11.043 12.5119 11.1971 12.6632C11.3513 12.8145 11.4379 13.0197 11.4379 13.2336C11.4379 13.4475 11.3513 13.6527 11.1971 13.804C11.043 13.9553 10.8339 14.0402 10.6159 14.0402C10.3979 14.0402 10.1888 13.9553 10.0346 13.804C9.88049 13.6527 9.79388 13.4475 9.79388 13.2336ZM8.77588 16.1042V16.7588C8.77663 16.8219 8.80171 16.8824 8.84609 16.9281C8.89278 16.9737 8.95579 16.9994 9.02161 16.9999H12.2102C12.276 16.9994 12.339 16.9737 12.3857 16.9281C12.4301 16.8824 12.4552 16.8219 12.4559 16.7588V16.1042C12.4577 15.7233 12.3368 15.3516 12.1103 15.0423C11.8839 14.7329 11.5635 14.5017 11.1951 14.3819C11.4611 14.2524 11.6746 14.0385 11.801 13.7749C11.9275 13.5113 11.9594 13.2135 11.8917 12.9298C11.8239 12.6462 11.6604 12.3933 11.4278 12.2123C11.1951 12.0313 10.9069 11.9329 10.61 11.9329C10.3132 11.9329 10.025 12.0313 9.79232 12.2123C9.55966 12.3933 9.39617 12.6462 9.32841 12.9298C9.26064 13.2135 9.29258 13.5113 9.41903 13.7749C9.54549 14.0385 9.75903 14.2524 10.025 14.3819C9.65656 14.5017 9.33621 14.7329 9.10976 15.0423C8.88331 15.3516 8.76235 15.7233 8.76418 16.1042H8.77588Z" fill="#E42426"/>
<path d="M2.38411 14.7808C2.74119 14.7823 3.08309 14.9227 3.33483 15.1712C3.46035 15.2933 3.5599 15.4386 3.6277 15.5988C3.69549 15.759 3.73018 15.9307 3.72974 16.1042V16.5147H1.03555V16.1042C1.03555 15.7532 1.17763 15.4166 1.43053 15.1684C1.68344 14.9202 2.02645 14.7808 2.38411 14.7808ZM1.55918 13.2335C1.55995 13.0191 1.64711 12.8136 1.80165 12.6619C1.95618 12.5103 2.16556 12.4248 2.38411 12.424C2.6036 12.4242 2.81405 12.5099 2.96917 12.6623C3.04619 12.7374 3.1071 12.8269 3.1483 12.9255C3.1895 13.0241 3.21015 13.1298 3.20904 13.2364C3.2095 13.3429 3.18855 13.4484 3.14739 13.5469C3.10623 13.6454 3.04566 13.735 2.96917 13.8105C2.8925 13.8862 2.80134 13.9463 2.70094 13.9873C2.60053 14.0282 2.49286 14.0493 2.38411 14.0493C2.27536 14.0493 2.16769 14.0282 2.06728 13.9873C1.96687 13.9463 1.87572 13.8862 1.79905 13.8105C1.72234 13.7346 1.66166 13.6445 1.62049 13.5455C1.57933 13.4465 1.55849 13.3405 1.55918 13.2335ZM0.5441 16.1042V16.7587C0.542491 16.7915 0.547907 16.8243 0.559998 16.855C0.57209 16.8856 0.59059 16.9135 0.614307 16.9367C0.637238 16.9595 0.66457 16.9776 0.694706 16.9899C0.724842 17.0022 0.757178 17.0085 0.789825 17.0084H3.97839C4.0106 17.0085 4.04248 17.0021 4.07213 16.9898C4.10178 16.9774 4.1286 16.9594 4.15099 16.9367C4.17401 16.9146 4.19232 16.8883 4.20488 16.8592C4.21743 16.8301 4.22397 16.7989 4.22412 16.7673V16.1042C4.22362 15.725 4.10187 15.3555 3.87601 15.0478C3.64848 14.7412 3.32957 14.5115 2.96332 14.3904C3.22927 14.2609 3.44281 14.047 3.56927 13.7834C3.69572 13.5198 3.72766 13.222 3.65989 12.9384C3.59213 12.6547 3.42864 12.4019 3.19598 12.2209C2.96332 12.0399 2.67515 11.9414 2.37826 11.9414C2.08137 11.9414 1.7932 12.0399 1.56054 12.2209C1.32788 12.4019 1.16439 12.6547 1.09663 12.9384C1.02886 13.222 1.0608 13.5198 1.18725 13.7834C1.3137 14.047 1.52724 14.2609 1.7932 14.3904C1.42729 14.5107 1.10908 14.7406 0.883434 15.0478C0.659434 15.3559 0.540642 15.7257 0.5441 16.1042Z" fill="#E42426"/>
</g>
<defs>
<clipPath id="clip0_1994_2433">
<rect width="13" height="17" fill="white"/>
</clipPath>
</defs>
</svg>
