<svg width="49" height="49" viewBox="0 0 49 49" fill="none" xmlns="http://www.w3.org/2000/svg">
<g clip-path="url(#clip0_1994_2273)">
<path d="M45 37.7399H44.92L33.78 43.0499L27.44 46.2299C27.1 46.2999 25.44 46.5499 22.32 45.4599L14.56 42.6599C13.4279 42.1098 12.1885 41.8162 10.93 41.7999V32.5099C13.42 32.5099 16.12 32.5999 16.63 32.7199C16.97 32.8299 17.35 32.9799 17.92 33.1899C18.49 33.3999 19.6 33.8299 21.14 34.3899C22.7226 35.0426 24.4303 35.3363 26.14 35.2499H30.75C30.9581 35.2106 31.1722 35.2177 31.3772 35.2706C31.5823 35.3236 31.7731 35.4211 31.9361 35.5562C32.0991 35.6913 32.2303 35.8607 32.3204 36.0524C32.4105 36.244 32.4572 36.4531 32.4572 36.6649C32.4572 36.8766 32.4105 37.0858 32.3204 37.2774C32.2303 37.469 32.0991 37.6384 31.9361 37.7736C31.7731 37.9087 31.5823 38.0062 31.3772 38.0591C31.1722 38.1121 30.9581 38.1192 30.75 38.0799H26.05L23.19 37.9999C22.7174 37.9393 22.2374 37.9745 21.7787 38.1034C21.32 38.2322 20.8919 38.4521 20.52 38.7499C20.1773 39.0729 19.9154 39.472 19.7555 39.915C19.5957 40.358 19.5424 40.8325 19.6 41.2999L21.91 41.1799C21.8723 40.9315 21.9294 40.6781 22.07 40.4699C22.3269 40.3213 22.6257 40.2616 22.92 40.2999H23L26 40.3699H30.71C31.672 40.395 32.61 40.0671 33.3469 39.4481C34.0838 38.8291 34.5687 37.9618 34.71 37.0099L44.13 35.1799H44.25C44.5851 35.0863 44.9433 35.1257 45.25 35.2899C45.4058 35.3712 45.5436 35.4831 45.6553 35.6188C45.767 35.7545 45.8502 35.9113 45.9 36.0799C45.9508 36.2486 45.9677 36.4257 45.95 36.601C45.9322 36.7764 45.88 36.9464 45.7964 37.1016C45.7128 37.2567 45.5994 37.3938 45.4628 37.505C45.3261 37.6163 45.1689 37.6995 45 37.7499V37.7399ZM8.62 43.2199C8.62 43.237 8.61664 43.2539 8.6101 43.2696C8.60357 43.2854 8.594 43.2997 8.58192 43.3118C8.56985 43.3239 8.55552 43.3335 8.53975 43.34C8.52398 43.3465 8.50707 43.3499 8.49 43.3499H6.69V30.2299H8.49C8.52448 30.2299 8.55754 30.2436 8.58192 30.268C8.6063 30.2923 8.62 30.3254 8.62 30.3599V43.2199ZM46.38 33.2199C45.5488 32.7636 44.5706 32.6557 43.66 32.9199L34.19 34.7599C33.8143 34.1841 33.2992 33.7127 32.6926 33.3892C32.0859 33.0658 31.4074 32.9009 30.72 32.9099H25.86C24.5132 32.9584 23.1721 32.7127 21.93 32.1899C20.4 31.6299 19.44 31.2699 18.74 30.9999C18.04 30.7299 17.74 30.6099 17.35 30.4899C15.2218 30.2141 13.0751 30.1071 10.93 30.1699C10.8871 29.5508 10.6119 28.9708 10.1594 28.5461C9.70685 28.1214 9.11056 27.8834 8.49 27.8799H0V30.1999H4.37V43.3499H0V45.6699H8.49C8.98147 45.6687 9.46112 45.5192 9.86617 45.2408C10.2712 44.9625 10.5828 44.5683 10.76 44.1099C11.702 44.1163 12.6321 44.3207 13.49 44.7099H13.57L21.57 47.5899C23.1681 48.2037 24.8588 48.5418 26.57 48.5899C27.1409 48.6095 27.7113 48.5387 28.26 48.3799H28.34L34.84 45.1299L45.84 39.9199C46.7354 39.6308 47.482 39.0026 47.92 38.1699C48.1475 37.7478 48.2893 37.2849 48.3374 36.8078C48.3854 36.3307 48.3387 35.8489 48.2 35.3899C48.0567 34.9276 47.8217 34.4989 47.509 34.1295C47.1963 33.7601 46.8123 33.4575 46.38 33.2399V33.2199Z" fill="#DE2627"/>
<path d="M46.31 25.47H13.51C13.4755 25.47 13.4425 25.4563 13.4181 25.4319C13.3937 25.4075 13.38 25.3745 13.38 25.34V13.59C14.5529 14.2548 15.8065 14.7657 17.11 15.11C21.2905 16.1815 25.5948 16.6926 29.91 16.63C34.2252 16.6932 38.5296 16.182 42.71 15.11C44.0129 14.7685 45.2665 14.261 46.44 13.6V25.34C46.44 25.3745 46.4263 25.4075 46.4019 25.4319C46.3775 25.4563 46.3445 25.47 46.31 25.47ZM13.51 6.3H46.31C46.3445 6.3 46.3775 6.3137 46.4019 6.33808C46.4263 6.36246 46.44 6.39552 46.44 6.43V10.43C46.44 10.77 45.66 11.88 42.11 12.89C38.1355 13.9096 34.0427 14.3939 29.94 14.33C25.8406 14.394 21.751 13.9098 17.78 12.89C14.23 11.89 13.45 10.77 13.45 10.43V6.43C13.45 6.39552 13.4637 6.36246 13.4881 6.33808C13.5125 6.3137 13.5455 6.3 13.58 6.3H13.51ZM24.18 2.49C24.1826 2.44402 24.2026 2.40076 24.2361 2.36914C24.2696 2.33751 24.3139 2.31993 24.36 2.32H35.58C35.6261 2.31993 35.6704 2.33751 35.7039 2.36914C35.7373 2.40076 35.7574 2.44402 35.76 2.49V4H24.18V2.49ZM46.31 4H38.08V2.49C38.0774 1.82869 37.8128 1.19537 37.3442 0.728694C36.8757 0.262014 36.2413 -5.29044e-06 35.58 0L24.36 0C23.7004 0.00263308 23.0686 0.265817 22.6022 0.732213C22.1358 1.19861 21.8726 1.83042 21.87 2.49V4H13.51C12.8619 3.99999 12.2403 4.25675 11.7811 4.71405C11.3219 5.17135 11.0626 5.79195 11.06 6.44V25.34C11.0626 25.988 11.3219 26.6086 11.7811 27.066C12.2403 27.5233 12.8619 27.78 13.51 27.78H46.31C46.9571 27.78 47.5777 27.5229 48.0353 27.0653C48.4929 26.6078 48.75 25.9871 48.75 25.34V6.43C48.7474 5.78461 48.4891 5.16655 48.0318 4.71112C47.5745 4.25569 46.9554 3.99999 46.31 4Z" fill="#DE2627"/>
<path d="M29.91 10.1601C30.0247 10.1601 30.1369 10.1941 30.2322 10.2578C30.3276 10.3216 30.402 10.4122 30.4459 10.5181C30.4898 10.6241 30.5012 10.7407 30.4789 10.8532C30.4565 10.9658 30.4012 11.0691 30.3201 11.1502C30.239 11.2313 30.1357 11.2866 30.0232 11.3089C29.9107 11.3313 29.794 11.3198 29.6881 11.2759C29.5821 11.232 29.4915 11.1577 29.4278 11.0623C29.364 10.9669 29.33 10.8548 29.33 10.7401C29.33 10.5863 29.3911 10.4387 29.4999 10.33C29.6087 10.2212 29.7562 10.1601 29.91 10.1601ZM29.91 13.6401C30.4836 13.6401 31.0443 13.47 31.5212 13.1514C31.9981 12.8327 32.3698 12.3798 32.5893 11.8499C32.8088 11.32 32.8662 10.7369 32.7543 10.1743C32.6424 9.61178 32.3662 9.09505 31.9606 8.68948C31.555 8.28391 31.0383 8.00771 30.4758 7.89581C29.9132 7.78391 29.3301 7.84134 28.8002 8.06084C28.2703 8.28033 27.8174 8.65203 27.4987 9.12894C27.1801 9.60584 27.01 10.1665 27.01 10.7401C27.01 11.5092 27.3155 12.2468 27.8594 12.7907C28.4033 13.3346 29.1409 13.6401 29.91 13.6401Z" fill="#DE2627"/>
</g>
<defs>
<clipPath id="clip0_1994_2273">
<rect width="48.75" height="48.62" fill="white"/>
</clipPath>
</defs>
</svg>
