<svg width="57" height="63" viewBox="0 0 57 63" fill="none" xmlns="http://www.w3.org/2000/svg">
<g clip-path="url(#clip0_1994_2358)">
<path d="M8.59 11.2798L11.59 13.0598C11.6947 13.1743 11.8246 13.2628 11.9694 13.3184C12.1142 13.374 12.27 13.3952 12.4244 13.3802C12.5788 13.3652 12.7276 13.3145 12.859 13.2321C12.9904 13.1498 13.1009 13.0379 13.1816 12.9055C13.2624 12.773 13.3112 12.6236 13.3243 12.4691C13.3373 12.3145 13.3143 12.159 13.2569 12.0149C13.1995 11.8708 13.1094 11.742 12.9936 11.6387C12.8779 11.5354 12.7397 11.4605 12.59 11.4198L8.57 8.99985C8.42063 8.9046 8.24716 8.854 8.07 8.854C7.89284 8.854 7.71938 8.9046 7.57 8.99985L0.690001 13.3298C0.481024 13.4725 0.333873 13.689 0.278203 13.9358C0.222533 14.1826 0.262483 14.4413 0.390001 14.6598C0.532362 14.8662 0.747048 15.0116 0.991524 15.0671C1.236 15.1227 1.49243 15.0844 1.71 14.9598L7.59 11.2898C7.74114 11.2006 7.91312 11.1526 8.08866 11.1509C8.2642 11.1491 8.43711 11.1936 8.59 11.2798Z" fill="#DE2627"/>
<path d="M8.59 11.2798L11.59 13.0598C11.6947 13.1743 11.8246 13.2628 11.9694 13.3184C12.1142 13.374 12.27 13.3952 12.4244 13.3802C12.5788 13.3652 12.7276 13.3145 12.859 13.2321C12.9904 13.1498 13.1009 13.0379 13.1816 12.9055C13.2624 12.773 13.3112 12.6236 13.3243 12.4691C13.3374 12.3145 13.3143 12.159 13.2569 12.0149C13.1995 11.8708 13.1094 11.742 12.9936 11.6387C12.8779 11.5354 12.7397 11.4605 12.59 11.4198L8.57 8.99985C8.42063 8.9046 8.24716 8.854 8.07 8.854C7.89284 8.854 7.71937 8.9046 7.57 8.99985L0.690001 13.3298C0.481024 13.4725 0.333873 13.689 0.278203 13.9358C0.222533 14.1826 0.262483 14.4413 0.390001 14.6598C0.532362 14.8662 0.747048 15.0116 0.991524 15.0671C1.236 15.1227 1.49243 15.0844 1.71 14.9598L7.59 11.2898C7.74114 11.2006 7.91312 11.1526 8.08866 11.1509C8.2642 11.1491 8.43711 11.1936 8.59 11.2798Z" stroke="#DE2627" stroke-width="0.48" stroke-miterlimit="22.93"/>
<path d="M49.21 4.87992L42.55 10.4199C42.4268 10.5994 42.3655 10.8143 42.3755 11.0318C42.3855 11.2493 42.4662 11.4576 42.6054 11.625C42.7445 11.7925 42.9346 11.9099 43.1466 11.9595C43.3586 12.0091 43.581 11.9882 43.78 11.8999L50.44 6.34992L52.26 8.53992C52.3742 8.67228 52.521 8.77241 52.686 8.83031C52.8509 8.88821 53.0281 8.90187 53.2 8.86992C53.3714 8.83481 53.5296 8.75256 53.6568 8.63243C53.784 8.51229 53.8752 8.35904 53.92 8.18992L55.85 1.46992C55.8913 1.31486 55.8947 1.15214 55.8599 0.995495C55.8251 0.838849 55.7531 0.692881 55.65 0.569919C55.5426 0.451808 55.4085 0.361126 55.2589 0.305454C55.1092 0.249783 54.9485 0.23074 54.79 0.249919L48.06 1.24992C47.8897 1.27243 47.7288 1.3412 47.5948 1.44874C47.4608 1.55628 47.3588 1.6985 47.3 1.85992C47.2284 2.02449 47.2055 2.2061 47.2338 2.38331C47.2622 2.56051 47.3407 2.7259 47.46 2.85992L49.21 4.87992ZM53.59 2.35992L52.59 5.91992L50 2.86992L53.59 2.35992Z" fill="#DE2627"/>
<path d="M49.21 4.87992L42.55 10.4199C42.4268 10.5994 42.3655 10.8143 42.3755 11.0318C42.3855 11.2493 42.4662 11.4576 42.6054 11.625C42.7445 11.7925 42.9346 11.9099 43.1466 11.9595C43.3586 12.0091 43.581 11.9882 43.78 11.8999L50.44 6.34992L52.26 8.53992C52.3742 8.67228 52.521 8.77241 52.686 8.83031C52.8509 8.88821 53.0281 8.90187 53.2 8.86992C53.3714 8.83481 53.5296 8.75256 53.6568 8.63243C53.784 8.51229 53.8752 8.35904 53.92 8.18992L55.85 1.46992C55.8913 1.31486 55.8947 1.15214 55.8599 0.995495C55.8251 0.838849 55.7531 0.692881 55.65 0.569919C55.5426 0.451808 55.4085 0.361126 55.2589 0.305454C55.1092 0.249783 54.9485 0.23074 54.79 0.249919L48.06 1.24992C47.8897 1.27243 47.7288 1.3412 47.5948 1.44874C47.4608 1.55628 47.3588 1.6985 47.3 1.85992C47.2284 2.02449 47.2055 2.2061 47.2338 2.38331C47.2622 2.56051 47.3406 2.7259 47.46 2.85992L49.21 4.87992ZM53.59 2.35992L52.59 5.91992L50 2.86992L53.59 2.35992Z" stroke="#DE2627" stroke-width="0.48" stroke-miterlimit="22.93"/>
<path fill-rule="evenodd" clip-rule="evenodd" d="M33.5 10.3499C33.2118 10.3629 32.9382 10.4802 32.73 10.6799L25.05 18.2299L23 16.1499C22.7905 15.9417 22.5068 15.8252 22.2115 15.8262C21.9161 15.8271 21.6332 15.9454 21.425 16.1549C21.2168 16.3644 21.1004 16.648 21.1013 16.9434C21.1022 17.2388 21.2205 17.5217 21.43 17.7299L23.8 20.0999C24.1398 20.431 24.5955 20.6162 25.07 20.6162C25.5445 20.6162 26.0002 20.431 26.34 20.0999L34.34 12.2699C34.5029 12.1109 34.6134 11.9061 34.657 11.6827C34.7005 11.4593 34.675 11.228 34.5838 11.0195C34.4926 10.811 34.34 10.6352 34.1464 10.5156C33.9528 10.396 33.7273 10.3382 33.5 10.3499Z" fill="#DE2627"/>
<path d="M33.5 10.3499C33.2118 10.3629 32.9382 10.4802 32.73 10.6799L25.05 18.2299L23 16.1499C22.7905 15.9417 22.5068 15.8252 22.2115 15.8262C21.9161 15.8271 21.6332 15.9454 21.425 16.1549C21.2168 16.3644 21.1004 16.648 21.1013 16.9434C21.1022 17.2388 21.2205 17.5217 21.43 17.7299L23.8 20.0999C24.1398 20.431 24.5955 20.6162 25.07 20.6162C25.5445 20.6162 26.0002 20.431 26.34 20.0999L34.34 12.2699C34.5029 12.1109 34.6134 11.9061 34.657 11.6827C34.7005 11.4593 34.675 11.228 34.5838 11.0195C34.4926 10.811 34.34 10.6352 34.1464 10.5156C33.9528 10.396 33.7273 10.3382 33.5 10.3499V10.3499Z" stroke="#DE2627" stroke-width="0.48" stroke-miterlimit="22.93"/>
<path d="M34.49 36.9998C34.304 37.0035 34.1218 36.9474 33.97 36.8398L27.84 32.6998L21.72 36.8398C21.564 36.9463 21.3789 37.0022 21.19 36.9998C21.0684 37.0012 20.9476 36.9783 20.8349 36.9327C20.7221 36.8871 20.6195 36.8195 20.533 36.7339C20.4465 36.6484 20.3778 36.5465 20.331 36.4342C20.2841 36.322 20.26 36.2015 20.26 36.0798V24.7898L20.06 24.6298C17.9984 23.0116 16.4928 20.7907 15.7528 18.2765C15.0127 15.7624 15.0751 13.08 15.9312 10.6029C16.7873 8.12581 18.3945 5.97733 20.529 4.45662C22.6635 2.93591 25.2192 2.11865 27.84 2.11865C30.4608 2.11865 33.0165 2.93591 35.151 4.45662C37.2855 5.97733 38.8928 8.12581 39.7488 10.6029C40.6049 13.08 40.6673 15.7624 39.9272 18.2765C39.1872 20.7907 37.6816 23.0116 35.62 24.6298L35.42 24.7898V35.9998C35.4187 36.1207 35.3936 36.24 35.3462 36.3512C35.2987 36.4623 35.2298 36.563 35.1435 36.6475C35.0571 36.732 34.955 36.7986 34.8428 36.8437C34.7307 36.8887 34.6108 36.9112 34.49 36.9098V36.9998ZM22.1 34.2698L27.31 30.6598C27.4652 30.5504 27.6501 30.4911 27.84 30.4898C28.0268 30.4912 28.2085 30.5506 28.36 30.6598L33.58 34.2698V25.9998L32.85 26.3198C31.2716 27.0029 29.5699 27.3553 27.85 27.3553C26.1301 27.3553 24.4285 27.0029 22.85 26.3198L22.1 25.9998V34.2698ZM27.84 3.99984C24.9863 3.99984 22.2494 5.13348 20.2315 7.15137C18.2136 9.16926 17.08 11.9061 17.08 14.7598C17.08 17.6136 18.2136 20.3504 20.2315 22.3683C22.2494 24.3862 24.9863 25.5198 27.84 25.5198C29.2537 25.5241 30.6543 25.2479 31.9606 24.7072C33.2668 24.1665 34.4529 23.372 35.45 22.3698C37.4625 20.3511 38.5979 17.6203 38.61 14.7698C38.61 11.9152 37.4767 9.17731 35.4591 7.15783C33.4415 5.13835 30.7047 4.00249 27.85 3.99984H27.84Z" fill="#DE2627"/>
<path d="M34.49 36.9998C34.304 37.0035 34.1218 36.9474 33.97 36.8398L27.84 32.6998L21.72 36.8398C21.564 36.9463 21.3789 37.0022 21.19 36.9998C21.0684 37.0012 20.9476 36.9783 20.8349 36.9327C20.7221 36.8871 20.6195 36.8195 20.533 36.7339C20.4465 36.6484 20.3778 36.5465 20.331 36.4342C20.2841 36.322 20.26 36.2015 20.26 36.0798V24.7898L20.06 24.6298C17.9984 23.0116 16.4928 20.7907 15.7528 18.2765C15.0127 15.7624 15.0751 13.08 15.9312 10.6029C16.7873 8.12581 18.3945 5.97733 20.529 4.45662C22.6635 2.93591 25.2192 2.11865 27.84 2.11865C30.4608 2.11865 33.0165 2.93591 35.151 4.45662C37.2855 5.97733 38.8928 8.12581 39.7488 10.6029C40.6049 13.08 40.6673 15.7624 39.9272 18.2765C39.1872 20.7907 37.6816 23.0116 35.62 24.6298L35.42 24.7898V35.9998C35.4187 36.1207 35.3936 36.24 35.3462 36.3512C35.2987 36.4623 35.2298 36.563 35.1435 36.6475C35.0571 36.732 34.955 36.7986 34.8428 36.8437C34.7307 36.8887 34.6108 36.9112 34.49 36.9098V36.9998ZM22.1 34.2698L27.31 30.6598C27.4652 30.5504 27.6501 30.4911 27.84 30.4898C28.0268 30.4912 28.2085 30.5506 28.36 30.6598L33.58 34.2698V25.9998L32.85 26.3198C31.2716 27.0029 29.5699 27.3553 27.85 27.3553C26.1301 27.3553 24.4285 27.0029 22.85 26.3198L22.1 25.9998V34.2698ZM27.84 3.99984C24.9863 3.99984 22.2494 5.13348 20.2315 7.15137C18.2136 9.16926 17.08 11.9061 17.08 14.7598C17.08 17.6136 18.2136 20.3504 20.2315 22.3683C22.2494 24.3862 24.9863 25.5198 27.84 25.5198C29.2537 25.5241 30.6543 25.2479 31.9606 24.7072C33.2668 24.1665 34.4529 23.372 35.45 22.3698C37.4625 20.3511 38.5979 17.6203 38.61 14.7698C38.61 11.9152 37.4767 9.17731 35.4591 7.15783C33.4415 5.13835 30.7047 4.00249 27.85 3.99984H27.84Z" stroke="#DE2627" stroke-width="0.48" stroke-miterlimit="22.93"/>
<path d="M19.68 62.1498C19.444 62.1498 19.2176 62.056 19.0507 61.8891C18.8838 61.7222 18.79 61.4959 18.79 61.2598C18.7866 60.497 18.8841 59.7371 19.08 58.9998H6.1C5.98275 59.0012 5.86642 58.9791 5.75784 58.9348C5.64925 58.8905 5.5506 58.825 5.46769 58.7421C5.38478 58.6592 5.31927 58.5606 5.27502 58.452C5.23077 58.3434 5.20866 58.2271 5.21 58.1098C5.22021 56.3297 5.75115 54.5915 6.73736 53.1095C7.72356 51.6276 9.12192 50.4666 10.76 49.7698C9.63314 49.0186 8.77786 47.9248 8.32058 46.65C7.8633 45.3753 7.82829 43.9872 8.22073 42.691C8.61316 41.3948 9.41221 40.2593 10.4998 39.4522C11.5873 38.6452 12.9057 38.2095 14.26 38.2095C15.6143 38.2095 16.9327 38.6452 18.0202 39.4522C19.1078 40.2593 19.9068 41.3948 20.2993 42.691C20.6917 43.9872 20.6567 45.3753 20.1994 46.65C19.7421 47.9248 18.8869 49.0186 17.76 49.7698C19.7628 50.605 21.3964 52.1356 22.36 54.0798C22.9734 53.6105 23.6458 53.2238 24.36 52.9298C23.2301 52.1783 22.3721 51.0831 21.9129 49.8061C21.4536 48.5292 21.4177 47.1383 21.8102 45.8393C22.2027 44.5403 23.0029 43.4021 24.0925 42.5932C25.182 41.7842 26.503 41.3475 27.86 41.3475C29.217 41.3475 30.538 41.7842 31.6275 42.5932C32.7171 43.4021 33.5173 44.5403 33.9098 45.8393C34.3024 47.1383 34.2664 48.5292 33.8072 49.8061C33.3479 51.0831 32.4899 52.1783 31.36 52.9298C32.0742 53.2238 32.7466 53.6105 33.36 54.0798C34.3212 52.1374 35.951 50.607 37.95 49.7698C37.0462 49.1634 36.3149 48.3332 35.8274 47.3601C35.3398 46.387 35.1127 45.3042 35.1682 44.2172C35.2236 43.1303 35.5598 42.0762 36.1438 41.1577C36.7278 40.2393 37.5398 39.4878 38.5006 38.9766C39.4614 38.4653 40.5383 38.2117 41.6264 38.2404C42.7144 38.2691 43.7764 38.5793 44.7089 39.1405C45.6414 39.7018 46.4126 40.4951 46.9473 41.4431C47.482 42.3911 47.762 43.4614 47.76 44.5498C47.7601 45.5856 47.5024 46.6051 47.0101 47.5164C46.5178 48.4277 45.8064 49.2021 44.94 49.7698C46.578 50.4689 47.977 51.6299 48.9662 53.1109C49.9553 54.5919 50.4917 56.3289 50.51 58.1098C50.51 58.2275 50.4867 58.3441 50.4413 58.4527C50.396 58.5614 50.3295 58.6599 50.2458 58.7427C50.1621 58.8255 50.0628 58.8908 49.9537 58.935C49.8445 58.9791 49.7277 59.0011 49.61 58.9998H36.61C36.7997 59.7383 36.8972 60.4974 36.9 61.2598C36.9 61.4959 36.8062 61.7222 36.6393 61.8891C36.4724 62.056 36.246 62.1498 36.01 62.1498H19.68ZM35.05 60.3798C34.833 58.6362 33.9926 57.0299 32.684 55.8573C31.3754 54.6847 29.6869 54.025 27.93 53.9998H27.73C25.9754 54.0295 24.2905 54.691 22.9844 55.863C21.6783 57.0349 20.8388 58.6387 20.62 60.3798H35.05ZM48.63 57.2198C48.4102 55.4746 47.5661 53.868 46.2535 52.697C44.941 51.526 43.2489 50.8699 41.49 50.8498H41.22C39.8092 50.8839 38.4393 51.3313 37.2803 52.1366C36.1214 52.9418 35.2242 54.0695 34.7 55.3798C35.1826 55.9393 35.5925 56.5575 35.92 57.2198H48.63ZM19.75 57.2198C20.0857 56.5552 20.5059 55.9368 21 55.3798C20.4648 54.0571 19.5512 52.9217 18.3736 52.1159C17.196 51.31 15.8068 50.8696 14.38 50.8498H14.09C12.3583 50.9174 10.7062 51.5946 9.42536 52.762C8.14454 53.9294 7.3174 55.5118 7.09 57.2298L19.75 57.2198ZM27.83 43.2198C26.724 43.3333 25.6984 43.8496 24.9484 44.6704C24.1984 45.4911 23.7765 46.5591 23.7629 47.6708C23.7493 48.7825 24.145 49.8604 24.8747 50.6993C25.6044 51.5381 26.6171 52.0793 27.72 52.2198H28C29.1028 52.0771 30.1146 51.5337 30.8427 50.6932C31.5708 49.8527 31.9642 48.7737 31.9482 47.6618C31.9321 46.55 31.5076 45.4828 30.7556 44.6637C30.0036 43.8445 28.9765 43.3306 27.87 43.2198H27.83ZM41.52 49.1198C42.7156 49.0948 43.853 48.5991 44.6853 47.7403C45.5175 46.8815 45.9773 45.7291 45.9648 44.5333C45.9522 43.3375 45.4684 42.195 44.6184 41.3538C43.7684 40.5126 42.6209 40.0408 41.425 40.0408C40.2291 40.0408 39.0816 40.5126 38.2316 41.3538C37.3816 42.195 36.8978 43.3375 36.8853 44.5333C36.8727 45.7291 37.3325 46.8815 38.1648 47.7403C38.997 48.5991 40.1344 49.0948 41.33 49.1198H41.52ZM14.26 39.9998C13.1354 40.0778 12.0805 40.5732 11.3023 41.3889C10.5242 42.2045 10.0789 43.2815 10.0538 44.4086C10.0288 45.5356 10.4258 46.6313 11.167 47.4807C11.9081 48.3302 12.94 48.8719 14.06 48.9998H14.27C14.8966 49.059 15.5287 48.9866 16.1257 48.7873C16.7227 48.5881 17.2715 48.2664 17.737 47.8427C18.2025 47.4191 18.5744 46.903 18.8288 46.3273C19.0833 45.7517 19.2147 45.1292 19.2147 44.4998C19.2147 43.8704 19.0833 43.248 18.8288 42.6723C18.5744 42.0967 18.2025 41.5805 17.737 41.1569C17.2715 40.7333 16.7227 40.4115 16.1257 40.2123C15.5287 40.013 14.8966 39.9407 14.27 39.9998H14.26Z" fill="#DE2627"/>
<path d="M19.68 62.1498C19.444 62.1498 19.2176 62.056 19.0507 61.8891C18.8838 61.7222 18.79 61.4959 18.79 61.2598C18.7866 60.497 18.8841 59.7371 19.08 58.9998H6.1C5.98275 59.0012 5.86642 58.9791 5.75784 58.9348C5.64925 58.8905 5.5506 58.825 5.46769 58.7421C5.38478 58.6592 5.31927 58.5606 5.27502 58.452C5.23077 58.3434 5.20866 58.2271 5.21 58.1098C5.22021 56.3297 5.75115 54.5915 6.73736 53.1095C7.72356 51.6276 9.12192 50.4666 10.76 49.7698C9.63314 49.0186 8.77786 47.9248 8.32058 46.65C7.8633 45.3753 7.82829 43.9872 8.22073 42.691C8.61316 41.3948 9.41221 40.2593 10.4998 39.4522C11.5873 38.6452 12.9057 38.2095 14.26 38.2095C15.6143 38.2095 16.9327 38.6452 18.0202 39.4522C19.1078 40.2593 19.9068 41.3948 20.2993 42.691C20.6917 43.9872 20.6567 45.3753 20.1994 46.65C19.7421 47.9248 18.8869 49.0186 17.76 49.7698C19.7628 50.605 21.3964 52.1356 22.36 54.0798C22.9734 53.6105 23.6458 53.2238 24.36 52.9298C23.2301 52.1783 22.3721 51.0831 21.9129 49.8061C21.4537 48.5292 21.4177 47.1383 21.8102 45.8393C22.2027 44.5403 23.0029 43.4021 24.0925 42.5932C25.182 41.7842 26.503 41.3475 27.86 41.3475C29.217 41.3475 30.538 41.7842 31.6275 42.5932C32.7171 43.4021 33.5173 44.5403 33.9098 45.8393C34.3024 47.1383 34.2664 48.5292 33.8072 49.8061C33.3479 51.0831 32.4899 52.1783 31.36 52.9298C32.0742 53.2238 32.7466 53.6105 33.36 54.0798C34.3212 52.1374 35.951 50.607 37.95 49.7698C37.0462 49.1634 36.3149 48.3332 35.8274 47.3601C35.3398 46.387 35.1127 45.3042 35.1682 44.2172C35.2236 43.1303 35.5598 42.0762 36.1438 41.1577C36.7278 40.2393 37.5398 39.4878 38.5006 38.9766C39.4614 38.4653 40.5383 38.2117 41.6264 38.2404C42.7144 38.2691 43.7764 38.5793 44.7089 39.1405C45.6414 39.7018 46.4126 40.4951 46.9473 41.4431C47.482 42.3911 47.762 43.4614 47.76 44.5498C47.7601 45.5856 47.5024 46.6051 47.0101 47.5164C46.5178 48.4277 45.8064 49.2021 44.94 49.7698C46.578 50.4689 47.977 51.6299 48.9662 53.1109C49.9553 54.5919 50.4917 56.3289 50.51 58.1098C50.51 58.2275 50.4867 58.3441 50.4413 58.4527C50.396 58.5614 50.3295 58.6599 50.2458 58.7427C50.1621 58.8255 50.0628 58.8908 49.9537 58.935C49.8445 58.9791 49.7277 59.0011 49.61 58.9998H36.61C36.7997 59.7383 36.8972 60.4974 36.9 61.2598C36.9 61.4959 36.8062 61.7222 36.6393 61.8891C36.4724 62.056 36.246 62.1498 36.01 62.1498H19.68ZM35.05 60.3798C34.833 58.6362 33.9926 57.0299 32.684 55.8573C31.3754 54.6847 29.6869 54.025 27.93 53.9998H27.73C25.9754 54.0295 24.2905 54.691 22.9844 55.863C21.6783 57.0349 20.8388 58.6387 20.62 60.3798H35.05ZM48.63 57.2198C48.4102 55.4746 47.5661 53.868 46.2535 52.697C44.941 51.526 43.2489 50.8699 41.49 50.8498H41.22C39.8092 50.8839 38.4393 51.3313 37.2803 52.1366C36.1214 52.9418 35.2242 54.0695 34.7 55.3798C35.1826 55.9393 35.5925 56.5575 35.92 57.2198H48.63ZM19.75 57.2198C20.0857 56.5552 20.5059 55.9368 21 55.3798C20.4648 54.0571 19.5512 52.9217 18.3736 52.1159C17.196 51.31 15.8068 50.8696 14.38 50.8498H14.09C12.3583 50.9174 10.7062 51.5946 9.42536 52.762C8.14454 53.9294 7.3174 55.5118 7.09 57.2298L19.75 57.2198ZM27.83 43.2198C26.724 43.3333 25.6984 43.8496 24.9484 44.6704C24.1984 45.4911 23.7765 46.5591 23.7629 47.6708C23.7493 48.7825 24.145 49.8604 24.8747 50.6993C25.6044 51.5381 26.6171 52.0793 27.72 52.2198H28C29.1028 52.0771 30.1146 51.5337 30.8427 50.6932C31.5708 49.8527 31.9642 48.7737 31.9482 47.6618C31.9321 46.55 31.5076 45.4828 30.7556 44.6637C30.0036 43.8445 28.9765 43.3306 27.87 43.2198H27.83ZM41.52 49.1198C42.7156 49.0948 43.853 48.5991 44.6853 47.7403C45.5175 46.8815 45.9773 45.7291 45.9648 44.5333C45.9522 43.3375 45.4684 42.195 44.6184 41.3538C43.7684 40.5126 42.6209 40.0408 41.425 40.0408C40.2291 40.0408 39.0816 40.5126 38.2316 41.3538C37.3816 42.195 36.8978 43.3375 36.8853 44.5333C36.8727 45.7291 37.3325 46.8815 38.1648 47.7403C38.997 48.5991 40.1344 49.0948 41.33 49.1198H41.52ZM14.26 39.9998C13.1354 40.0778 12.0805 40.5732 11.3023 41.3889C10.5242 42.2045 10.0789 43.2815 10.0538 44.4086C10.0288 45.5356 10.4258 46.6313 11.167 47.4807C11.9081 48.3302 12.94 48.8719 14.06 48.9998V48.9998H14.27C14.8966 49.059 15.5287 48.9866 16.1257 48.7873C16.7227 48.5881 17.2715 48.2664 17.737 47.8427C18.2025 47.4191 18.5744 46.903 18.8288 46.3273C19.0833 45.7517 19.2147 45.1292 19.2147 44.4998C19.2147 43.8704 19.0833 43.248 18.8288 42.6723C18.5744 42.0967 18.2025 41.5805 17.737 41.1569C17.2715 40.7333 16.7227 40.4115 16.1257 40.2123C15.5287 40.013 14.8966 39.9407 14.27 39.9998H14.26Z" stroke="#DE2627" stroke-width="0.48" stroke-miterlimit="22.93"/>
</g>
<defs>
<clipPath id="clip0_1994_2358">
<rect width="56.12" height="62.39" fill="white"/>
</clipPath>
</defs>
</svg>
