<svg width="47" height="49" viewBox="0 0 47 49" fill="none" xmlns="http://www.w3.org/2000/svg">
<g clip-path="url(#clip0_1994_2327)">
<path fill-rule="evenodd" clip-rule="evenodd" d="M18.335 20.5577H24.0244C24.2382 20.5577 24.4433 20.4728 24.5945 20.3216C24.7456 20.1704 24.8306 19.9653 24.8306 19.7515C24.8306 19.5377 24.7456 19.3326 24.5945 19.1814C24.4433 19.0302 24.2382 18.9453 24.0244 18.9453H18.335C18.1212 18.9453 17.9161 19.0302 17.765 19.1814C17.6138 19.3326 17.5288 19.5377 17.5288 19.7515C17.5288 19.9653 17.6138 20.1704 17.765 20.3216C17.9161 20.4728 18.1212 20.5577 18.335 20.5577Z" fill="#303F70"/>
<path fill-rule="evenodd" clip-rule="evenodd" d="M42.9583 11.8394H33.4913C32.1541 11.9085 30.8657 12.3646 29.7829 13.1523C29.5773 13.288 29.3845 13.4422 29.207 13.613L28.9997 13.7858L28.7579 14.0046L28.516 13.8203L28.3087 13.6476C28.129 13.4745 27.9322 13.3202 27.7213 13.1869C26.6452 12.3947 25.3591 11.9379 24.0244 11.874H15.9625C15.1353 11.8767 14.3416 12.2018 13.7503 12.7803C13.1589 13.3588 12.8163 14.145 12.7953 14.972V33.952C12.7953 34.793 13.1287 35.5998 13.7223 36.1956C14.3159 36.7914 15.1215 37.1276 15.9625 37.1307H24.1856C25.1244 37.2145 26.0215 37.5574 26.7769 38.1211C27.2697 38.4555 27.7253 38.8416 28.136 39.2728C28.2905 39.4248 28.4953 39.5149 28.7118 39.5262C28.9277 39.5225 29.1339 39.4359 29.2876 39.2843C29.7062 38.8822 30.1611 38.5198 30.6466 38.2017C31.4748 37.6193 32.4382 37.2585 33.4453 37.1537H42.9583C43.8004 37.1507 44.6071 36.8148 45.2026 36.2193C45.7981 35.6239 46.1339 34.8171 46.137 33.975V14.972C46.1339 14.1299 45.7981 13.3232 45.2026 12.7277C44.6071 12.1322 43.8004 11.7964 42.9583 11.7933V11.8394ZM27.9862 36.8773L27.4104 36.5087C26.4942 35.8631 25.4095 35.4989 24.2893 35.4607H15.9971C15.7906 35.4655 15.5853 35.4282 15.3938 35.351C15.2022 35.2738 15.0284 35.1584 14.8829 35.0119C14.7374 34.8653 14.6233 34.6906 14.5475 34.4985C14.4718 34.3064 14.436 34.1008 14.4423 33.8944V14.972C14.4348 14.6143 14.5529 14.2653 14.7758 13.9855C14.9988 13.7057 15.3127 13.5128 15.6631 13.4403H24.0474C25.0579 13.5456 26.0249 13.9063 26.8576 14.4883C27.1963 14.7212 27.523 14.9711 27.8365 15.2369L27.9747 15.3521L27.9862 36.8773ZM44.5591 33.9059C44.5639 34.1129 44.5266 34.3187 44.4495 34.5109C44.3725 34.703 44.2573 34.8776 44.1109 35.024C43.9645 35.1704 43.7899 35.2856 43.5978 35.3626C43.4056 35.4397 43.1998 35.4769 42.9928 35.4722H33.4913C32.2871 35.5282 31.1241 35.9278 30.1399 36.6239L29.5641 36.9809V15.3636L29.7023 15.2484C30.0175 14.9798 30.3483 14.7298 30.6927 14.4998C31.5208 13.9173 32.4843 13.5565 33.4913 13.4518H42.9583C43.1618 13.4456 43.3644 13.4804 43.5542 13.554C43.744 13.6276 43.9171 13.7386 44.0632 13.8804C44.2092 14.0222 44.3254 14.1919 44.4046 14.3794C44.4839 14.5669 44.5247 14.7684 44.5246 14.972L44.5591 33.9059Z" fill="#303F70"/>
<path fill-rule="evenodd" clip-rule="evenodd" d="M11.229 44.2366H18.335C18.5337 44.2129 18.7168 44.1171 18.8496 43.9675C18.9825 43.8179 19.0558 43.6247 19.0558 43.4246C19.0558 43.2245 18.9825 43.0314 18.8496 42.8817C18.7168 42.7321 18.5337 42.6364 18.335 42.6127H11.229C11.0304 42.6364 10.8473 42.7321 10.7144 42.8817C10.5816 43.0314 10.5082 43.2245 10.5082 43.4246C10.5082 43.6247 10.5816 43.8179 10.7144 43.9675C10.8473 44.1171 11.0304 44.2129 11.229 44.2366Z" fill="#303F70"/>
<path fill-rule="evenodd" clip-rule="evenodd" d="M21.6519 28.4124H18.335C18.1212 28.4124 17.9161 28.4973 17.765 28.6485C17.6138 28.7997 17.5288 29.0047 17.5288 29.2185C17.5288 29.4324 17.6138 29.6374 17.765 29.7886C17.9161 29.9398 18.1212 30.0247 18.335 30.0247H21.6519C21.8657 30.0247 22.0708 29.9398 22.222 29.7886C22.3731 29.6374 22.4581 29.4324 22.4581 29.2185C22.4581 29.0047 22.3731 28.7997 22.222 28.6485C22.0708 28.4973 21.8657 28.4124 21.6519 28.4124Z" fill="#303F70"/>
<path fill-rule="evenodd" clip-rule="evenodd" d="M33.4913 20.5577H40.5973C40.8111 20.5577 41.0162 20.4728 41.1674 20.3216C41.3186 20.1704 41.4035 19.9653 41.4035 19.7515C41.4035 19.5377 41.3186 19.3326 41.1674 19.1814C41.0162 19.0302 40.8111 18.9453 40.5973 18.9453H33.4913C33.2775 18.9453 33.0725 19.0302 32.9213 19.1814C32.7701 19.3326 32.6852 19.5377 32.6852 19.7515C32.6852 19.9653 32.7701 20.1704 32.9213 20.3216C33.0725 20.4728 33.2775 20.5577 33.4913 20.5577Z" fill="#303F70"/>
<path fill-rule="evenodd" clip-rule="evenodd" d="M38.2248 28.4124H33.4913C33.2775 28.4124 33.0725 28.4973 32.9213 28.6485C32.7701 28.7997 32.6852 29.0047 32.6852 29.2185C32.6852 29.4324 32.7701 29.6374 32.9213 29.7886C33.0725 29.9398 33.2775 30.0247 33.4913 30.0247H38.2248C38.4386 30.0247 38.6437 29.9398 38.7949 29.7886C38.9461 29.6374 39.031 29.4324 39.031 29.2185C39.031 29.0047 38.9461 28.7997 38.7949 28.6485C38.6437 28.4973 38.4386 28.4124 38.2248 28.4124Z" fill="#303F70"/>
<path fill-rule="evenodd" clip-rule="evenodd" d="M24.0244 23.6788H18.335C18.1212 23.6788 17.9161 23.7638 17.765 23.915C17.6138 24.0662 17.5288 24.2712 17.5288 24.485C17.5288 24.6988 17.6138 24.9039 17.765 25.0551C17.9161 25.2063 18.1212 25.2912 18.335 25.2912H24.0244C24.1303 25.2912 24.2351 25.2704 24.3329 25.2298C24.4307 25.1893 24.5196 25.1299 24.5945 25.0551C24.6693 24.9802 24.7287 24.8913 24.7692 24.7935C24.8097 24.6957 24.8306 24.5909 24.8306 24.485C24.8306 24.3792 24.8097 24.2743 24.7692 24.1765C24.7287 24.0787 24.6693 23.9898 24.5945 23.915C24.5196 23.8401 24.4307 23.7807 24.3329 23.7402C24.2351 23.6997 24.1303 23.6788 24.0244 23.6788Z" fill="#303F70"/>
<path fill-rule="evenodd" clip-rule="evenodd" d="M40.5973 23.6788H33.4913C33.2775 23.6788 33.0725 23.7638 32.9213 23.915C32.7701 24.0662 32.6852 24.2712 32.6852 24.485C32.6852 24.6988 32.7701 24.9039 32.9213 25.0551C33.0725 25.2063 33.2775 25.2912 33.4913 25.2912H40.5973C40.7032 25.2912 40.808 25.2704 40.9058 25.2298C41.0036 25.1893 41.0925 25.1299 41.1674 25.0551C41.2422 24.9802 41.3016 24.8913 41.3421 24.7935C41.3826 24.6957 41.4035 24.5909 41.4035 24.485C41.4035 24.3792 41.3826 24.2743 41.3421 24.1765C41.3016 24.0787 41.2422 23.9898 41.1674 23.915C41.0925 23.8401 41.0036 23.7807 40.9058 23.7402C40.808 23.6997 40.7032 23.6788 40.5973 23.6788Z" fill="#303F70"/>
<path fill-rule="evenodd" clip-rule="evenodd" d="M28.7924 41.4611C28.576 41.4623 28.369 41.5493 28.2166 41.7029C28.0664 41.8614 27.9838 42.072 27.9862 42.2903V45.8375C27.9909 46.0435 27.954 46.2483 27.8776 46.4397C27.8013 46.6311 27.6871 46.8051 27.542 46.9514C27.3968 47.0976 27.2236 47.213 27.0328 47.2908C26.842 47.3685 26.6375 47.407 26.4314 47.4038H3.17868C2.96814 47.4072 2.75914 47.3674 2.56454 47.287C2.36994 47.2065 2.19386 47.0871 2.04713 46.9361C1.90041 46.785 1.78615 46.6056 1.71138 46.4087C1.63661 46.2119 1.60292 46.0018 1.61238 45.7915V3.17868C1.60927 2.97213 1.64766 2.76706 1.72527 2.57563C1.80289 2.38419 1.91815 2.21028 2.06421 2.06421C2.21028 1.91815 2.38419 1.80289 2.57563 1.72527C2.76706 1.64766 2.97213 1.60927 3.17868 1.61238H7.40541L9.55908 5.9082C9.62556 6.0404 9.72762 6.1514 9.85378 6.22873C9.97993 6.30605 10.1252 6.34661 10.2731 6.34585H19.2909C19.4389 6.34661 19.5841 6.30605 19.7103 6.22873C19.8364 6.1514 19.9385 6.0404 20.005 5.9082L22.1586 1.61238H26.3969C26.6029 1.60922 26.8075 1.64767 26.9983 1.72542C27.1891 1.80316 27.3623 1.91861 27.5074 2.06484C27.6526 2.21108 27.7667 2.38509 27.8431 2.57648C27.9194 2.76787 27.9563 2.97269 27.9517 3.17868V10.2847C27.9502 10.3911 27.9697 10.4968 28.0093 10.5956C28.0488 10.6944 28.1075 10.7845 28.182 10.8605C28.2955 10.9764 28.4412 11.0554 28.6003 11.0872C28.7593 11.119 28.9243 11.102 29.0735 11.0386C29.2228 10.9752 29.3495 10.8682 29.437 10.7316C29.5245 10.595 29.5688 10.4353 29.5641 10.2731V3.17868C29.5641 2.33764 29.2307 1.53087 28.6371 0.935077C28.0435 0.339288 27.2379 0.00304727 26.3969 0L3.17868 0C2.33658 0.00303464 1.52983 0.338905 0.934367 0.934367C0.338905 1.52983 0.00303464 2.33658 0 3.17868L0 45.7915C0.00303464 46.6336 0.338905 47.4403 0.934367 48.0358C1.52983 48.6312 2.33658 48.9671 3.17868 48.9701H26.3969C27.2379 48.9671 28.0435 48.6309 28.6371 48.0351C29.2307 47.4393 29.5641 46.6325 29.5641 45.7915V42.2327C29.5669 42.1261 29.5479 42.02 29.5083 41.921C29.4687 41.822 29.4093 41.7321 29.3337 41.6569C29.183 41.5282 28.9906 41.4586 28.7924 41.4611ZM20.3505 1.61238L18.7842 4.73347H10.7799L9.21357 1.61238H20.3505Z" fill="#303F70"/>
</g>
<defs>
<clipPath id="clip0_1994_2327">
<rect width="46.137" height="48.9701" fill="white"/>
</clipPath>
</defs>
</svg>
